<svg width="108" height="98" viewBox="0 0 108 98" fill="none" xmlns="http://www.w3.org/2000/svg">
<path d="M0 20.3818C0.509686 19.5511 1.20523 19.1174 2.21897 19.0048C4.64068 18.7373 5.90222 17.4194 6.23451 14.9977C6.46823 13.2912 7.11871 12.7224 8.89558 12.7224C17.0111 12.7168 25.1239 12.7224 33.2394 12.7224C33.6224 12.7224 34.0082 12.7224 34.3771 12.7224C34.5207 12.3957 34.2475 12.3197 34.1349 12.1733C33.1972 10.9427 33.4028 9.57416 34.7291 8.73783C36.0357 7.91275 37.3761 7.144 38.7193 6.37806C39.2571 6.07112 39.6598 5.67408 39.9611 5.13341C40.6144 3.97043 41.2959 2.82152 41.9773 1.67543C43.2755 -0.512558 45.2692 -0.591405 46.3984 1.66135C47.9133 4.68568 49.9802 6.98068 53.1003 8.4337C55.2348 9.42773 55.3756 10.7456 53.886 12.7224C54.3224 12.7224 54.6998 12.7224 55.0743 12.7224C69.582 12.7224 84.0898 12.7224 98.5947 12.7224C100.921 12.7224 101.326 13.0547 101.732 15.3018C102.137 17.532 103.382 18.7063 105.688 19.0301C107.42 19.2723 107.989 19.9115 107.994 21.663C108.003 24.5775 108.006 27.4948 107.994 30.4094C107.989 32.006 107.361 32.7015 105.77 32.9015C103.863 33.1408 102.441 34.0053 101.898 35.9455C101.413 37.6829 101.963 39.1219 103.323 40.268C104.052 40.8819 104.953 41.0564 105.866 41.1747C107.304 41.3634 107.986 42.0927 107.992 43.5486C108.008 46.8855 108.003 50.2224 107.994 53.5592C107.989 55.1756 107.397 55.843 105.806 56.0992C102.951 56.5582 101.63 58.0704 101.822 60.6695C101.951 62.4238 103.106 63.7727 104.824 64.1557C105.269 64.2542 105.725 64.3021 106.172 64.3866C107.243 64.5921 107.966 65.3299 107.975 66.4112C108.008 69.6777 108.011 72.9442 107.972 76.2107C107.958 77.2752 107.189 78.0214 106.127 78.196C102.948 78.7225 102.188 79.4829 101.656 82.6733C101.467 83.8082 100.673 84.5093 99.4564 84.5262C97.4543 84.5544 95.4521 84.5487 93.45 84.5319C92.8643 84.5262 92.3546 84.667 91.8562 84.9655C89.9582 86.1003 88.0518 87.2239 86.137 88.3334C85.6921 88.5896 85.3823 88.9304 85.1289 89.3696C83.9152 91.4675 82.6987 93.5626 81.4569 95.6436C80.1869 97.7696 78.3396 97.7668 77.0612 95.6408C75.8137 93.5626 74.5803 91.476 73.3695 89.3781C73.0597 88.8402 72.6683 88.4376 72.1333 88.1306C70.4268 87.1535 68.7175 86.1792 67.0392 85.1542C66.2874 84.6952 65.5214 84.5262 64.6485 84.5262C46.2069 84.5431 27.7652 84.5375 9.3236 84.5375C7.01171 84.5375 6.60621 84.1996 6.19227 81.9468C5.78959 79.7532 4.57591 78.5254 2.32879 78.2664C1.28689 78.1453 0.532214 77.7567 0.00563189 76.8753V65.7044C0.616692 64.4908 1.79094 64.395 2.93703 64.1782C4.8913 63.8093 6.04865 62.4098 6.11905 60.433C6.20353 58.0225 4.9448 56.547 2.32034 56.1527C1.30378 56.0007 0.526582 55.629 0.00844784 54.7419V42.5151C0.619508 41.3042 1.79376 41.2057 2.93985 40.9889C4.89411 40.62 6.05429 39.2204 6.12187 37.2437C6.20071 34.9571 5.01802 33.4534 2.73428 33.0451C1.63888 32.8508 0.582901 32.6677 0.0112638 31.5526V20.3818H0ZM18.2023 62.5393L18.3741 62.5844C18.8837 61.717 19.385 60.8441 19.9059 59.9881C20.9394 58.29 22.8317 58.2365 23.9102 59.8895C24.4847 60.7709 25.0704 61.6607 25.5097 62.6125C26.4389 64.6118 27.8863 66.0029 29.8744 66.9519C30.9726 67.4757 32.144 67.9994 32.986 68.8921C33.5407 69.4778 34.073 69.6439 34.8107 69.6411C37.9702 69.6186 41.1325 69.6186 44.292 69.6411C45.8492 69.6524 46.787 70.6661 46.6321 72.0938C46.5025 73.2652 45.638 73.9861 44.261 73.9918C40.116 74.0058 35.9709 74.0565 31.8286 73.9777C29.1619 73.927 27.2696 75.0027 26.0419 77.3371C25.7321 77.9285 25.3773 78.4945 25.0422 79.0717C24.4086 80.1671 24.4114 80.1728 25.6814 80.1728C38.7474 80.1728 51.8106 80.1699 64.8766 80.184C65.6087 80.184 66.2367 80.0094 66.8618 79.6293C68.5993 78.5677 70.3508 77.5286 72.1248 76.5289C72.7669 76.1657 73.2259 75.6954 73.5722 75.059C74.1382 74.0143 74.1439 74.0002 72.9612 74.0002C69.8355 73.9974 66.7098 74.0115 63.5841 73.9889C62.1451 73.9777 61.275 73.1244 61.2722 71.815C61.2722 70.4718 62.162 69.6439 63.6855 69.6383C67.6897 69.6242 71.694 69.6214 75.6955 69.6411C76.3488 69.6439 76.7909 69.4862 77.171 68.8921C78.3847 66.9941 80.0996 66.9969 81.3302 68.8921C81.6794 69.4271 82.0623 69.6608 82.6987 69.6439C84.0335 69.6073 85.3682 69.6355 86.703 69.6327C89.0205 69.627 89.7132 68.9371 89.7132 66.6055C89.7132 54.6293 89.7132 42.6531 89.7132 30.6769C89.7132 28.2946 89.0374 27.6244 86.6241 27.6244C64.8484 27.6244 43.0727 27.6244 21.2998 27.6244C18.8471 27.6244 18.1966 28.2833 18.1966 30.7698C18.1966 41.0255 18.1966 51.2811 18.1966 61.5368V62.5449L18.2023 62.5393ZM19.4695 80.1559C18.7373 78.9168 18.0615 77.8637 17.4786 76.7598C17.0168 75.8841 16.3719 75.2674 15.5074 74.7971C14.0882 74.0256 12.6858 73.2202 11.3229 72.3529C9.81639 71.3926 9.8361 69.5116 11.3173 68.5119C11.7228 68.236 12.1339 67.9431 12.5845 67.7601C13.6207 67.3405 13.8657 66.6055 13.8629 65.5242C13.8263 53.5452 13.8319 41.5689 13.846 29.5899C13.8516 26.0503 16.5972 23.2653 20.1115 23.2653C42.6982 23.254 65.2821 23.2512 87.8688 23.2653C91.2536 23.2653 94.0667 26.0672 94.0723 29.4407C94.0949 42.2251 94.0949 55.0123 94.0723 67.7967C94.0667 71.1702 91.2564 73.9326 87.8744 73.9861C86.9621 74.0002 86.0469 73.9861 85.1345 73.9946C84.8276 73.9974 84.3686 73.9636 84.6755 74.4817C85.1176 75.2223 85.4246 76.0474 86.2722 76.5148C88.1476 77.5511 89.9808 78.6578 91.8308 79.7391C92.2589 79.9897 92.6982 80.1784 93.2163 80.17C94.3764 80.1502 95.5338 80.1446 96.694 80.17C97.2656 80.184 97.5838 79.9869 97.7922 79.4294C98.7017 76.9907 100.386 75.2786 102.821 74.3606C103.475 74.1128 103.658 73.7411 103.638 73.0991C103.604 71.8714 103.599 70.6408 103.638 69.4102C103.661 68.74 103.399 68.4303 102.779 68.1768C99.2565 66.7322 97.3135 63.8544 97.3135 60.1964C97.3135 56.5554 99.2649 53.6888 102.805 52.2358C103.441 51.9739 103.649 51.6331 103.635 50.9827C103.601 49.4029 103.601 47.8204 103.635 46.2406C103.649 45.5845 103.441 45.2269 102.793 44.996C101.453 44.5172 100.279 43.7485 99.3522 42.6475C95.531 38.1081 97.1783 31.3668 102.692 29.0999C103.393 28.8099 103.675 28.4635 103.641 27.7089C103.587 26.5515 103.59 25.3885 103.641 24.234C103.675 23.4962 103.441 23.102 102.714 22.8288C100.51 21.9953 98.8594 20.4775 98.0118 18.2783C97.612 17.2448 97.046 17.0561 96.0491 17.0561C81.226 17.0843 66.4028 17.1462 51.5797 17.0111C48.9749 16.9886 47.2544 17.4475 46.1787 20.0157C45.4269 21.8151 43.2952 21.7531 42.2139 20.0945C41.7154 19.3314 41.2508 18.5401 40.8143 17.7404C40.544 17.2448 40.1807 17.0674 39.626 17.0674C30.1785 17.0787 20.7282 17.0787 11.2807 17.0674C10.6724 17.0674 10.3289 17.2448 10.1036 17.8474C9.18843 20.2832 7.49042 21.9812 5.05181 22.8936C4.44356 23.1217 4.26053 23.4737 4.27742 24.0763C4.3084 25.2336 4.34219 26.3966 4.26616 27.5512C4.20984 28.4354 4.51396 28.8944 5.36438 29.1647C5.9867 29.3618 6.5865 29.7166 7.1159 30.108C9.7826 32.0764 10.8977 34.7966 10.5345 38.0265C10.1684 41.2733 8.43094 43.6556 5.34748 44.8861C4.51678 45.2184 4.22392 45.638 4.26334 46.5081C4.32811 47.9809 4.31121 49.4592 4.26898 50.932C4.24926 51.6303 4.46328 52.0133 5.156 52.2555C6.50202 52.7257 7.66501 53.5114 8.58582 54.618C12.3507 59.1489 10.7175 65.8593 5.26864 68.1092C4.53367 68.4134 4.22955 68.7738 4.26898 69.5707C4.32811 70.7985 4.29713 72.029 4.28024 73.2568C4.27179 73.7749 4.42948 74.0988 4.95325 74.2931C7.47352 75.2223 9.20251 76.9626 10.1487 79.4744C10.2782 79.818 10.4218 80.1418 10.8555 80.1418C13.6545 80.1446 16.4536 80.1418 19.4638 80.1418L19.4695 80.1559ZM79.3337 90.3411C79.435 90.2004 79.5646 90.0455 79.6688 89.8709C80.1334 89.0881 80.6515 88.3277 81.0401 87.5055C81.73 86.0496 82.7579 84.9908 84.2109 84.284C85.1232 83.8391 85.9652 83.2562 86.8494 82.755C87.3479 82.4734 87.3647 82.2566 86.8494 81.9693C85.9624 81.4737 85.112 80.9049 84.2053 80.4515C82.9381 79.818 81.9694 78.9394 81.3358 77.6497C80.874 76.7092 80.2545 75.8447 79.7589 74.9182C79.3506 74.1551 79.0999 74.3212 78.7536 74.9633C78.2214 75.9517 77.5934 76.8866 77.0781 77.8806C76.5712 78.8521 75.8532 79.5533 74.8901 80.0658C73.8088 80.643 72.7781 81.316 71.7109 81.9215C71.1702 82.2284 71.1449 82.4509 71.7109 82.7606C72.4797 83.1774 73.1977 83.7068 73.989 84.0729C75.5547 84.7965 76.6726 85.9145 77.4216 87.4661C77.8299 88.3165 78.365 89.1049 78.8493 89.9188C78.9507 90.0905 79.0155 90.3158 79.3365 90.3411H79.3337ZM27.1373 70.3592C24.7831 69.4693 23.2485 68.0191 22.3136 65.9353C21.9588 65.1412 21.6687 65.7326 21.511 66.0846C20.7113 67.8586 19.4216 69.123 17.6588 69.9255C16.921 70.2606 16.9492 70.607 17.6757 70.9252C19.3906 71.6799 20.6099 72.9161 21.373 74.6254C21.7898 75.5574 22.2009 75.2927 22.5135 74.5606C23.2287 72.8935 24.4706 71.7756 26.0869 71.0238C26.3657 70.8942 26.6135 70.6943 27.1373 70.3564V70.3592ZM47.8964 10.709C47.888 10.4527 47.6852 10.3485 47.5022 10.2669C46.1534 9.67554 45.2382 8.67024 44.6328 7.34675C44.3455 6.71879 44.0161 6.87085 43.7908 7.38054C43.2135 8.69559 42.2364 9.59106 40.9608 10.2049C40.4145 10.4668 40.2455 10.7935 40.9298 11.106C42.2279 11.7002 43.1403 12.6633 43.7429 13.9473C44.0217 14.5443 44.354 14.5894 44.6384 13.9473C45.2044 12.6745 46.1252 11.7706 47.3839 11.1905C47.5951 11.092 47.8401 10.9906 47.8964 10.7062V10.709Z" fill="white"/>
<path d="M60.2106 48.6089C60.2106 46.2548 60.1993 43.9034 60.2134 41.5493C60.2218 39.8738 60.999 39.0882 62.652 39.0713C64.0571 39.0572 65.4623 39.0459 66.8675 39.0769C70.3987 39.1614 73.0119 41.9238 72.995 45.5254C72.9781 49.0369 70.3367 51.7571 66.8449 51.8529C65.33 51.8942 64.5725 52.661 64.5725 54.1535C64.5725 54.6801 64.5781 55.2066 64.5696 55.7332C64.5415 57.2679 63.7474 58.1578 62.4098 58.169C61.0666 58.1803 60.2275 57.2848 60.2162 55.7698C60.1993 53.3819 60.2106 50.994 60.2106 48.6061V48.6089ZM64.5753 45.5311C64.7273 46.0914 64.1867 47.0291 64.8991 47.3727C65.6622 47.7416 66.6197 47.5726 67.4532 47.2206C67.9263 47.0207 68.2782 46.6659 68.4078 46.1646C68.6077 45.3818 68.5767 44.6243 67.9375 44.0217C67.4025 43.5177 65.5074 43.1403 64.9329 43.4951C64.2543 43.9147 64.702 44.6468 64.5809 45.2297C64.5668 45.2973 64.5809 45.3705 64.5809 45.5339L64.5753 45.5311Z" fill="white"/>
<path d="M41.4535 47.3445C41.9463 45.6408 42.4363 43.9344 42.9319 42.2307C43.1093 41.6253 43.2586 41.0058 43.5007 40.4257C43.9457 39.3613 44.9988 38.8572 46.0858 39.1275C47.1052 39.381 47.7472 40.2877 47.6965 41.4225C47.6852 41.6647 47.6514 41.9153 47.5839 42.149C46.235 46.8742 44.8749 51.5965 43.5289 56.3217C43.2445 57.3186 42.6869 58.0197 41.6084 58.1605C40.4116 58.3154 39.519 57.7072 39.1304 56.3808C37.9927 52.5089 36.8945 48.6257 35.7794 44.7453C35.5288 43.8696 35.2556 42.9966 35.036 42.1124C34.6756 40.6735 35.2669 39.488 36.4806 39.1473C37.7252 38.7981 38.8488 39.4542 39.2825 40.865C39.9386 43.0079 40.5412 45.1677 41.1663 47.3191C41.2621 47.3304 41.3606 47.3388 41.4564 47.3501L41.4535 47.3445Z" fill="white"/>
<path d="M56.1415 48.6229C56.1415 50.9404 56.1472 53.2551 56.1415 55.5726C56.1359 57.2678 55.3474 58.1858 53.9367 58.1746C52.5653 58.1633 51.7853 57.2622 51.7825 55.6318C51.774 50.9629 51.774 46.2969 51.7825 41.6281C51.7825 40.0117 52.5737 39.0909 53.931 39.0768C55.3306 39.0627 56.1331 39.9948 56.1387 41.6759C56.1472 43.9935 56.1387 46.3082 56.1387 48.6257L56.1415 48.6229Z" fill="white"/>
<path d="M56.1331 71.8431C56.1134 73.1074 55.1728 74.0085 53.9028 73.9832C52.6441 73.955 51.7515 73.0032 51.7881 71.7276C51.8219 70.5252 52.7483 69.6382 53.9648 69.6382C55.2207 69.6382 56.15 70.5872 56.1331 71.8431Z" fill="white"/>
</svg>
