<svg width="108" height="108" viewBox="0 0 108 108" fill="none" xmlns="http://www.w3.org/2000/svg">
<path d="M34.4285 0C36.0648 1.64195 37.6785 3.30644 39.3485 4.91178C40.0948 5.62714 40.3877 6.42136 40.3736 7.44089C40.3342 10.1784 40.3455 12.9188 40.3736 15.6591C40.3821 16.4477 40.1173 17.0786 39.6442 17.6841C37.7151 20.1428 35.8254 22.6325 33.8766 25.0743C33.3556 25.7277 33.2035 26.4064 33.2035 27.2119C33.2176 36.9735 33.2119 46.7351 33.2147 56.4995C33.2147 57.995 33.2176 58.0007 34.7496 58.0007C56.8374 58.0007 78.9223 58.0007 101.01 58.0007C103.145 58.0007 105.136 58.3274 106.654 60.0426C107.276 60.7467 107.589 61.6028 108 62.4111V73.3725C107.561 74.0682 106.916 74.3047 106.113 74.285C104.849 74.2569 103.579 74.3385 102.32 74.2597C101.311 74.1949 101.081 74.5976 101.089 75.5355C101.126 80.9458 101.106 86.3561 101.106 91.7692C101.106 96.4782 101.109 101.184 101.106 105.893C101.106 107.555 100.647 107.997 98.9655 108.011C98.9317 108.011 98.8951 108.011 98.8613 108.011C68.9641 108.011 39.0641 108.011 9.16686 108.011C8.99226 108.011 8.81483 108.014 8.64023 108.006C7.54752 107.944 7.0406 107.451 6.97583 106.378C6.95611 106.029 6.96738 105.676 6.96738 105.324C6.96738 95.4868 6.96738 85.6491 6.96738 75.8115C6.96738 74.7939 6.44262 74.2841 5.3931 74.2822C4.26942 74.2822 3.14574 74.2907 2.01924 74.2794C0.492842 74.2653 0.0168974 73.7893 0.011265 72.246C0.00281624 69.6464 0.00563248 67.0469 0.00844872 64.4446C0.011265 60.634 1.87843 58.4992 5.69444 58.088C6.70828 57.9781 7.05468 57.6514 7.04905 56.6066C7.01244 46.7323 7.02089 36.8609 7.03779 26.9866C7.03779 26.2008 6.80685 25.5728 6.32528 24.9645C4.39052 22.5086 2.49519 20.0217 0.560432 17.5658C0.194321 17.087 0 16.6139 0 16.0168C0.0140812 12.961 0.011265 9.90242 0.00281624 6.84664C0.00281624 6.30026 0.0844872 5.78204 0.481577 5.38493C2.29805 3.57681 4.02441 1.67575 5.97043 0C15.4555 0 24.9434 0 34.4285 0ZM54.0521 71.1926C60.9716 71.1926 67.8911 71.1926 74.8078 71.1926C84.4675 71.1926 94.1244 71.1814 103.784 71.2095C104.68 71.2095 105.04 70.9899 105.006 70.0323C104.939 68.1369 105.012 66.2386 104.978 64.3432C104.939 62.2309 103.866 61.1945 101.754 61.1945C69.9329 61.1945 38.1122 61.1916 6.29148 61.1945C4.20183 61.1945 3.12603 62.2591 3.09223 64.377C3.06125 66.1316 3.08378 67.889 3.08378 69.6464C3.08378 70.6772 3.60197 71.1926 4.63835 71.1926C21.1105 71.1926 37.5827 71.1926 54.0549 71.1926H54.0521ZM53.9282 104.924H56.4572C69.8062 104.924 83.1523 104.924 96.5013 104.924C97.5208 104.924 98.0305 104.401 98.0305 103.353C98.0305 101.139 98.0305 98.9256 98.0305 96.7147C98.0305 95.5262 97.4513 94.931 96.2929 94.9291C68.122 94.9291 39.9512 94.9291 11.7803 94.9291C11.5353 94.9291 11.2847 94.9517 11.0425 94.9263C10.2399 94.8362 10.0174 95.2164 10.0258 95.974C10.0596 98.3961 10.0371 100.821 10.0371 103.246C10.0371 104.365 10.5816 104.924 11.6705 104.924C25.7573 104.924 39.8414 104.924 53.9282 104.924ZM61.6841 91.7748C62.1009 91.8227 62.2389 91.8508 62.3769 91.8508C73.9319 91.8508 85.487 91.8452 97.042 91.8706C97.9742 91.8706 98.039 91.4115 98.039 90.6905C98.0221 85.6323 98.008 80.574 98.0502 75.5158C98.0587 74.561 97.794 74.2456 96.8083 74.2512C90.2042 74.2907 83.6029 74.2822 76.9988 74.2569C76.2075 74.254 75.7005 74.5441 75.219 75.1356C71.862 79.2841 68.4741 83.4073 65.103 87.5446C64.0019 88.8964 62.912 90.2568 61.6869 91.7748H61.6841ZM30.0042 42.5415C30.0042 37.8015 29.9789 33.0616 30.0239 28.3244C30.0324 27.2992 29.686 27.0092 28.689 27.0148C22.9664 27.0542 17.2438 27.057 11.5241 27.0148C10.5046 27.0063 10.2145 27.3274 10.2173 28.3329C10.2511 37.7762 10.2483 47.2195 10.2173 56.6629C10.2145 57.6655 10.5102 58.0035 11.5297 57.995C17.2523 57.9556 22.9749 57.9556 28.6947 57.995C29.7085 58.0007 30.0296 57.6599 30.0211 56.6573C29.9817 51.9539 30.0042 47.2477 30.0042 42.5443V42.5415ZM37.8644 74.3301C37.5011 74.2963 37.3631 74.2738 37.2251 74.2738C28.5144 74.2738 19.801 74.2822 11.0904 74.2569C10.2342 74.2569 10.0202 74.5723 10.023 75.3722C10.0483 80.5008 10.054 85.6294 10.0202 90.7581C10.0146 91.6706 10.3638 91.879 11.1974 91.8706C14.9908 91.8368 18.7843 91.8424 22.5778 91.8706C23.2734 91.8762 23.7437 91.665 24.1887 91.1129C26.8557 87.8037 29.5593 84.5282 32.246 81.2359C34.085 78.9856 35.9155 76.7297 37.8644 74.3329V74.3301ZM20.0629 14.6959C25.3687 14.6959 30.6717 14.6818 35.9775 14.71C36.8167 14.7156 37.1828 14.4875 37.1575 13.5863C37.1068 11.7246 37.1434 9.86299 37.1406 8.00136C37.1406 7.5789 37.1603 7.15081 36.8252 6.81566C35.6564 5.64967 34.5243 4.44426 33.3077 3.32897C32.6487 2.72626 31.739 2.90933 30.9955 3.12619C30.376 3.30644 30.6013 4.0556 30.652 4.53157C30.8322 6.21295 30.3196 7.55637 28.965 8.5928C28.5764 8.88852 28.2469 9.26591 27.9202 9.63204C27.4161 10.1981 26.805 10.4066 26.0474 10.4009C22.1131 10.3812 18.1788 10.3925 14.2445 10.3897C13.8221 10.3897 13.3433 10.4572 13.0279 10.1559C11.4396 8.65476 9.3471 7.53102 9.67942 4.7428C9.89064 2.95721 9.52734 2.78259 7.71368 3.01635C7.28843 3.06986 7.01244 3.30925 6.73926 3.58244C5.77048 4.55128 4.82422 5.54547 3.82164 6.47769C3.25557 7.00154 3.04999 7.5789 3.0697 8.33932C3.11476 10.0235 3.13448 11.7134 3.06407 13.3976C3.02183 14.403 3.33161 14.7269 4.36236 14.7184C9.59775 14.6706 14.8303 14.6959 20.0657 14.6959H20.0629ZM45.9132 91.7297C46.237 91.7973 46.3666 91.8452 46.4933 91.8452C49.9686 91.8508 53.4438 91.8396 56.9219 91.8565C57.533 91.8593 57.8709 91.5269 58.2173 91.1017C61.9207 86.5588 65.6353 82.0273 69.3415 77.4844C70.1525 76.4903 70.9411 75.4792 71.7522 74.4596C71.3185 74.1667 70.958 74.2709 70.6229 74.2709C67.5334 74.2625 64.444 74.2963 61.3546 74.2456C60.4478 74.2315 59.8705 74.5498 59.3128 75.2426C56.0094 79.3404 52.6637 83.4045 49.3349 87.4854C48.2169 88.857 47.1101 90.2399 45.9132 91.7241V91.7297ZM4.88054 17.9685C6.33654 19.833 7.73621 21.6299 9.1387 23.4239C9.44285 23.8126 9.87937 23.7759 10.299 23.7759C16.8665 23.7759 23.4339 23.7703 30.0014 23.7872C30.621 23.7872 31.0603 23.6013 31.4377 23.1028C32.5191 21.6749 33.6372 20.278 34.7271 18.8557C34.9355 18.5853 35.3607 18.3009 35.2312 17.9854C35.0566 17.563 34.5412 17.7799 34.1835 17.7799C24.8054 17.7686 15.4274 17.7686 6.0521 17.777C5.71415 17.777 5.35649 17.6813 4.88336 17.9685H4.88054ZM56.1164 74.2709C54.4886 74.2709 53.1903 74.3019 51.8949 74.2597C51.2274 74.2372 50.7909 74.4794 50.3797 74.9948C48.8054 76.9719 47.1917 78.9208 45.5921 80.8782C42.8604 84.2241 40.1286 87.5699 37.4081 90.9242C37.2251 91.1496 36.8252 91.3439 37.0138 91.7016C37.1603 91.9748 37.5264 91.8452 37.7968 91.848C38.8162 91.8593 39.8357 91.8198 40.8524 91.8649C41.5649 91.8959 42.0127 91.6002 42.4492 91.0622C45.4992 87.2967 48.5802 83.5566 51.6442 79.7995C53.0805 78.0393 54.5027 76.2678 56.1192 74.2709H56.1164ZM46.9833 74.2709C45.4344 74.2709 44.1446 74.2991 42.8547 74.2597C42.1985 74.24 41.7479 74.4512 41.3311 74.9722C39.4245 77.3549 37.4785 79.7066 35.5494 82.0695C33.1105 85.0605 30.6717 88.0515 28.2384 91.0453C28.0892 91.2284 27.8188 91.3974 27.9174 91.6621C28.0272 91.9494 28.3426 91.8452 28.5736 91.848C29.6973 91.8593 30.8209 91.8368 31.9418 91.8593C32.4487 91.8706 32.7895 91.6706 33.1021 91.2819C34.13 89.992 35.1889 88.7275 36.2309 87.4516C39.754 83.1341 43.2772 78.8138 46.9833 74.2709ZM20.3107 3.01353C18.207 3.01353 16.1004 3.0079 13.9967 3.01917C13.6278 3.01917 13.1406 2.9037 13.0054 3.39375C12.5323 5.11456 13.3067 7.32542 15.4978 7.31979C18.4098 7.31134 21.3189 7.31979 24.2309 7.31979C26.4642 7.31979 27.4471 6.27773 27.4414 4.0556C27.4414 3.18815 27.0866 2.991 26.3065 3.00508C24.307 3.04451 22.3074 3.01917 20.3079 3.01917L20.3107 3.01353Z" fill="white"/>
<path d="M62.1826 33.2165C60.0253 30.8901 58.0483 28.7553 56.0657 26.6233C54.8688 25.339 53.655 24.0717 52.4637 22.7818C51.3175 21.5397 51.602 20.3681 53.1847 19.7795C55.2912 18.9965 57.4147 18.2586 59.5015 17.4278C60.5492 17.011 61.3518 17.1884 62.1967 17.9094C66.6013 21.6721 71.0425 25.3897 75.4499 29.1496C76.0272 29.6425 76.5651 29.727 77.2804 29.5495C80.9613 28.637 84.628 27.6485 88.3426 26.9078C91.8967 26.2009 94.9721 27.3049 97.2363 30.1889C99.9653 33.6643 98.3206 38.5 94.0089 39.4829C88.1934 40.8066 82.3356 41.9585 76.4919 43.1611C68.6881 44.7665 60.8758 46.3352 53.0749 47.9603C51.9202 48.1997 51.0697 47.9575 50.2305 47.1238C47.0171 43.9328 43.7475 40.7954 40.5088 37.6269C39.0049 36.1568 39.2105 35.1204 41.1537 34.3543C43.4405 33.4531 45.7442 32.5969 48.0282 31.6815C48.9322 31.3211 49.6475 31.476 50.3093 32.1744C51.1542 33.0672 52.0385 33.9234 52.9003 34.7993C53.1819 35.0866 53.4635 35.3119 53.9113 35.202C56.598 34.5486 59.2875 33.9065 62.1826 33.2108V33.2165ZM73.7348 40.5166C76.1371 40.0152 78.5393 39.5167 80.9416 39.007C81.1894 38.9535 81.5696 39.0492 81.6146 38.6606C81.6456 38.3902 81.3668 38.255 81.1838 38.1001C75.0331 32.8813 68.7613 27.7949 62.7937 22.3762C60.7379 20.5089 59.0988 20.6131 56.9669 21.6665C56.1981 22.0467 56.2122 22.2692 56.7444 22.8353C62.1234 28.5638 67.4856 34.3064 72.8477 40.049C73.0927 40.3138 73.3067 40.5954 73.7348 40.5166ZM52.8383 44.8115C52.8862 44.8031 52.9904 44.7862 53.0946 44.7637C58.3187 43.6878 63.54 42.6063 68.767 41.5502C69.5471 41.3925 69.5386 41.1502 69.0486 40.632C67.7982 39.3055 66.5449 37.9762 65.3452 36.6018C64.8467 36.0272 64.3736 35.8414 63.6104 36.0385C60.4844 36.844 57.3302 37.5368 54.2126 38.3733C52.934 38.7169 52.0075 38.4831 51.1148 37.5002C50.298 36.6018 49.5855 35.2809 48.4478 35.0725C47.2734 34.8556 46.1075 35.8583 44.9049 36.23C44.8712 36.2413 44.8402 36.2582 44.8064 36.2694C44.0038 36.4891 44.0995 36.813 44.6233 37.3143C47.0566 39.6435 49.4673 41.998 51.8892 44.3412C52.1399 44.5834 52.3792 44.8566 52.8383 44.8172V44.8115ZM90.0774 29.772C89.9507 29.7805 89.8071 29.772 89.6719 29.8058C86.4614 30.5634 83.2481 31.3211 80.0404 32.0871C79.2715 32.2702 79.5841 32.6222 79.9474 32.932C81.7921 34.5008 83.6451 36.061 85.4898 37.6269C85.8137 37.9001 86.1826 37.9734 86.574 37.8917C88.8777 37.4157 91.1955 36.9989 93.4738 36.4272C95.3973 35.9456 96.0732 33.6896 94.851 32.1237C93.6456 30.5803 91.9981 29.91 90.0774 29.772Z" fill="white"/>
<path d="M25.8249 42.5585C25.8249 44.3863 25.8362 46.2114 25.8193 48.0392C25.808 49.3263 25.2532 49.929 23.9634 49.9487C21.4344 49.9825 18.9054 49.9853 16.3765 49.9487C15.0641 49.929 14.422 49.2869 14.4107 47.9772C14.3797 44.3244 14.3797 40.6687 14.4107 37.0159C14.422 35.7288 15.0275 35.1796 16.3258 35.1711C18.8547 35.1542 21.3837 35.1542 23.9127 35.1711C25.3321 35.1796 25.808 35.6612 25.8193 37.0806C25.8362 38.9085 25.8221 40.7335 25.8221 42.5613L25.8249 42.5585ZM22.7918 42.5585C22.7918 41.4038 22.7778 40.2463 22.7975 39.0915C22.8087 38.486 22.5891 38.179 21.947 38.1931C20.7923 38.2128 19.6348 38.21 18.4802 38.1931C17.8747 38.1847 17.5705 38.4128 17.5762 39.0493C17.5874 41.3249 17.5874 43.6006 17.5762 45.8762C17.5762 46.4789 17.8043 46.7887 18.4379 46.7831C19.5926 46.769 20.7501 46.7634 21.9047 46.7859C22.606 46.8 22.8144 46.4564 22.8003 45.8142C22.7778 44.7299 22.7947 43.6428 22.7918 42.5585Z" fill="white"/>
</svg>
