<svg width="108" height="108" viewBox="0 0 108 108" fill="none" xmlns="http://www.w3.org/2000/svg">
<path d="M108 10.7496C99.2324 19.5115 90.448 28.2592 81.7115 37.0492C79.2958 39.479 78.285 42.5451 78.1415 45.9265C78.0908 47.1541 78.0204 48.3788 77.9303 49.6036C77.8486 50.7523 77.1166 51.4928 76.1706 51.4252C75.2359 51.3605 74.5995 50.6256 74.6333 49.5191C74.6896 47.6243 74.7938 45.7323 74.9036 43.8431C74.9261 43.4489 74.9599 43.0941 74.7234 42.7366C70.8296 36.8944 66.3642 31.6238 60.1588 28.0819C58.5709 27.1753 56.8985 26.446 55.1697 25.8407C54.4349 25.5845 53.7817 25.5873 53.0412 25.8717C45.9968 28.5746 40.5629 33.3243 35.9849 39.1806C35.4668 39.845 35.0389 40.5912 34.4561 41.1909C33.2764 42.4128 33.1187 43.8262 33.2538 45.4423C33.5298 48.728 33.6762 52.0221 33.8535 55.3162C33.9577 57.2787 34.0422 59.2411 34.09 61.2063C34.1604 64.019 32.8906 66.1588 30.5678 67.6285C29.7063 68.1747 29.8189 68.4675 30.4552 69.0475C31.3365 69.8499 32.1699 70.7086 32.9892 71.5758C33.8057 72.4373 33.8366 73.3862 33.1328 74.1041C32.4289 74.8249 31.4773 74.8333 30.6044 73.9859C28.4675 71.9024 26.3671 69.7823 24.2752 67.6538C23.6417 67.0119 23.2926 66.1954 23.2391 65.286C23.011 61.4343 22.8027 57.5799 22.5774 53.7283C22.4536 51.5913 22.2846 49.46 22.1833 47.323C22.1213 45.9772 22.7323 45.1635 23.7402 45.0931C24.7623 45.0228 25.5253 45.8364 25.6069 47.202C25.8491 51.2281 26.0574 55.2571 26.2883 59.2861C26.3868 61.0008 26.5163 62.7154 26.6177 64.43C26.6684 65.2888 27.147 65.3901 27.8424 65.1959C29.6275 64.6975 30.8522 62.8252 30.7396 60.905C30.4552 55.9666 30.1765 51.0282 29.9653 46.087C29.8077 42.3818 28.5773 39.1806 25.9251 36.5425C21.5695 32.2066 17.2308 27.8538 12.8865 23.5095C12.6866 23.3096 12.481 23.1181 12.2952 22.907C11.5688 22.0764 11.5519 21.1416 12.2417 20.4547C12.9146 19.7846 13.8832 19.7902 14.6884 20.556C15.8343 21.6428 16.9126 22.8028 18.0642 23.8839C18.433 24.2331 18.7117 25.0439 19.3227 24.723C19.9872 24.3767 19.852 23.6305 19.6944 22.9295C18.4921 17.5913 19.852 12.9147 23.5235 8.91952C25.4295 6.8445 27.9635 5.61693 30.3623 4.23452C33.6931 2.31435 37.204 0.822128 40.9768 0H47.3004C49.153 0.346307 51.0338 0.518053 52.861 0.993874C53.334 1.11776 53.8155 1.31484 54.3026 1.18533C56.4339 0.622227 58.6159 0.346307 60.7867 0H67.1103C68.7686 0.44485 70.4523 0.805235 72.0346 1.49785C73.0398 1.93988 73.4818 2.7958 73.1777 3.67705C72.8511 4.61743 71.891 5.11296 70.8605 4.65685C66.1615 2.58463 61.3864 3.29696 56.5859 4.11627C55.4738 4.30772 55.0768 4.9384 54.9473 5.9548C54.7446 7.53993 55.2007 8.91952 56.0482 10.2372C56.9266 11.5971 57.6671 13.0161 57.9289 14.6575C58.3287 17.1943 57.5995 19.5255 56.7211 21.8286C56.4761 22.4734 56.5775 22.7408 57.2363 22.9858C62.1635 24.8046 66.3586 27.7468 70.0469 31.452C72.1332 33.5468 74.0111 35.8161 75.7145 38.2318C76.1678 38.8765 76.4099 38.8737 76.7562 38.1614C77.5023 36.6297 78.5863 35.343 79.7885 34.1465C81.7538 32.1897 83.6824 30.1963 85.6898 28.2818C86.3543 27.6483 86.3599 27.2034 85.7968 26.5361C85.0226 25.6183 84.2032 24.7652 83.2431 24.0416C80.498 21.9666 77.7501 19.8972 75.0219 17.8024C74.1322 17.1183 73.9689 16.0709 74.5517 15.3107C75.1092 14.5815 76.1002 14.483 77.0068 15.077C77.2123 15.2122 77.4038 15.367 77.5981 15.5163C79.8645 17.2309 82.131 18.9512 84.4031 20.6574C84.6368 20.8347 84.8677 21.1867 85.214 20.9783C85.4843 20.8179 85.3773 20.4659 85.3886 20.1956C85.5885 15.55 83.7133 11.9715 79.8308 9.43476C78.9777 8.87729 78.0767 8.39584 77.2489 7.8074C76.4944 7.26964 76.3254 6.49819 76.7478 5.6648C77.1532 4.86519 78.0823 4.50481 78.9101 4.95248C81.2301 6.20538 83.5219 7.52866 85.2112 9.62621C88.404 13.5848 89.5668 18.0418 88.373 23.0365C88.2125 23.7037 88.1281 24.3992 88.7531 24.7342C89.3387 25.0467 89.6118 24.3034 89.9441 23.9712C94.874 19.0722 99.7842 14.1507 104.703 9.23768C106.035 7.90594 106.612 7.8806 108.003 9.06311V10.7496H108ZM31.8348 39.0032C32.153 38.5921 32.412 38.2684 32.6598 37.9361C37.8009 31.0945 44.0034 25.5986 52.1571 22.586C52.526 22.448 52.8554 22.2763 53.0356 21.8877C54.6376 18.4387 55.5836 15.0376 52.9342 11.5858C51.8503 10.1724 51.4082 8.45778 51.4448 6.6277C51.4617 5.83936 52.0924 4.91306 51.518 4.32462C50.9606 3.75307 49.9329 3.89948 49.1108 3.74744C44.2822 2.84929 39.631 3.22657 35.1965 5.54092C32.8597 6.76003 30.5256 7.97633 28.3126 9.40379C24.4188 11.918 22.5155 15.4881 22.707 20.1393C22.7182 20.4406 22.5831 20.846 22.9237 21.0037C23.2532 21.1557 23.4925 20.8094 23.7318 20.6292C26.0884 18.8554 28.4337 17.0676 30.7903 15.2938C31.8911 14.4661 32.9695 14.4999 33.5776 15.3473C34.1717 16.1751 33.9155 17.169 32.8737 17.9657C31.3111 19.1595 29.7091 20.3026 28.1719 21.5302C26.1475 23.1463 23.8726 24.4611 22.2649 26.5756C21.7638 27.2344 21.7863 27.6201 22.3691 28.2423C25.6097 31.711 29.574 34.5378 31.8348 39.0004V39.0032Z" fill="white"/>
<path d="M108 38.1473C105.294 40.8558 102.698 43.6882 99.8463 46.2306C97.6304 48.2043 96.7041 50.5271 96.4423 53.3932C96.0904 57.2674 95.5132 61.1218 94.9613 64.9762C94.6573 67.0935 93.6071 68.8701 92.1008 70.3764C87.2103 75.2697 82.3338 80.1772 77.4179 85.048C74.3631 88.0746 70.1962 87.4975 68.1605 83.7894C67.8705 83.2601 67.696 83.2686 67.2258 83.5558C66.1109 84.2343 65.528 85.0818 65.6773 86.4754C65.8124 87.7255 65.7026 89.0009 65.7082 90.2651C65.7195 93.0243 67.0794 94.57 69.7795 94.998C74.5264 95.7497 79.2818 96.4564 84.0062 97.3264C88.7813 98.2048 92.219 100.942 94.3307 105.322C94.6545 105.995 94.7277 106.677 94.2687 107.319C93.8858 107.854 93.3312 108.031 92.6892 107.955C92.0304 107.879 91.6109 107.479 91.3406 106.905C89.4598 102.921 86.2164 100.964 81.9368 100.367C77.6657 99.7731 73.4115 99.0439 69.16 98.3118C64.7228 97.546 62.3662 94.7418 62.2733 90.2369C62.2592 89.4993 62.248 88.7616 62.2733 88.024C62.2987 87.2356 62.0509 87.1146 61.3555 87.4947C59.4972 88.5082 57.5573 89.3135 55.4429 89.6232C52.6358 90.0371 50.1047 89.1361 47.6383 87.9592C45.8139 87.0892 45.8139 87.0723 45.8279 89.1136C45.8364 90.206 45.8026 91.2984 45.5802 92.3627C44.9382 95.471 42.5451 97.7234 39.3129 98.2611C34.5744 99.0523 29.8274 99.8012 25.0861 100.578C21.4006 101.184 18.7034 103.163 16.9718 106.463C16.8902 106.618 16.8226 106.781 16.7381 106.933C16.206 107.885 15.3248 108.222 14.4435 107.82C13.5876 107.426 13.2638 106.502 13.7087 105.483C14.9278 102.693 16.8789 100.556 19.4973 98.9904C22.082 97.4475 24.9876 97.1378 27.8594 96.6732C31.4604 96.0904 35.0671 95.5414 38.6653 94.9417C40.9853 94.5531 42.3592 92.9032 42.3874 90.541C42.4071 88.8911 42.3958 87.2384 42.3874 85.5885C42.3846 84.865 41.1711 83.46 40.4785 83.3164C40.1153 83.2404 40.0618 83.5107 39.9745 83.7219C38.5555 87.1455 33.7016 88.2492 30.4778 84.9016C25.8519 80.0955 21.0909 75.4161 16.3327 70.7368C14.3084 68.7434 13.2244 66.3952 12.9006 63.5938C12.3938 59.241 11.78 54.8995 11.2141 50.5524C11.0621 49.3755 10.4201 48.4717 9.60928 47.6637C6.77969 44.8313 3.94729 42.0017 1.11771 39.1693C0.869944 38.9215 0.602471 38.685 0.394123 38.4035C-0.163347 37.6517 -0.135192 36.8662 0.495482 36.1989C1.14023 35.5148 1.92857 35.5204 2.69158 36.0328C2.97876 36.2271 3.21808 36.4974 3.46584 36.7451C6.05048 39.327 8.54501 42.0073 11.2423 44.4625C13.582 46.591 14.6237 49.1475 14.9193 52.222C15.305 56.2003 15.8935 60.1561 16.4228 64.1203C16.6143 65.5534 17.2393 66.7866 18.2754 67.8171C23.2251 72.7527 28.155 77.7051 33.1075 82.6379C34.5913 84.116 36.4523 83.7641 37.007 81.9481C37.2238 81.2386 37.0295 80.6333 36.61 80.073C36.3988 79.7942 36.1342 79.5549 35.9202 79.2762C35.3092 78.4738 35.3289 77.6376 35.9624 76.9872C36.6156 76.3171 37.5363 76.2664 38.3331 76.9365C39.2988 77.7502 40.1997 78.6427 41.1683 79.4536C43.7022 81.5793 46.4023 83.4544 49.3417 85.0029C52.5345 86.6866 55.6118 86.6247 58.7934 84.9917C62.7097 82.9814 66.1446 80.3236 69.3093 77.3194C72.1614 74.6109 74.8812 71.7672 77.6826 69.0052C78.2429 68.4534 78.4231 68.1831 77.5756 67.6538C75.2078 66.1728 73.9408 64.0105 73.9971 61.1528C74.0252 59.7844 74.0027 58.4133 74.2054 57.0534C74.3547 56.0483 75.0557 55.3782 75.9342 55.4232C76.8351 55.4683 77.5024 56.1778 77.5024 57.197C77.5024 58.3908 77.4545 59.5845 77.3813 60.7755C77.2546 62.8336 78.4371 64.6834 80.2419 65.193C80.9289 65.3873 81.4216 65.3056 81.4751 64.4385C81.568 62.9322 81.7031 61.4315 81.7876 59.9252C82.0241 55.7554 82.2409 51.5885 82.4689 47.4187C82.483 47.14 82.5168 46.8584 82.5787 46.5853C82.7984 45.6365 83.5163 45.0368 84.3441 45.0903C85.2281 45.1466 85.9264 45.873 85.9067 46.8922C85.8701 48.6463 85.7575 50.3975 85.6533 52.1488C85.4731 55.2289 85.2732 58.3119 85.0845 61.3921C85.0057 62.6872 84.955 63.9852 84.8509 65.2803C84.7551 66.46 84.1413 67.3807 83.3192 68.1972C79.5127 71.9897 75.7174 75.7934 71.9164 79.5915C71.1731 80.3348 70.7058 81.1457 71.1759 82.2268C71.7531 83.5445 73.2622 83.9781 74.4222 83.1362C74.7601 82.8913 75.0501 82.576 75.3485 82.2775C79.8195 77.8093 84.2174 73.2623 88.7926 68.9039C90.7944 66.9949 91.67 64.8157 91.9487 62.1523C92.3795 58.0388 93.0017 53.9451 93.5508 49.8429C93.7704 48.2127 94.5362 46.8472 95.6765 45.6985C98.7426 42.607 101.826 39.5297 104.914 36.458C106.049 35.329 106.967 35.4078 107.994 36.6663V38.1416L108 38.1473Z" fill="white"/>
<path d="M56.9295 76.1511C54.8291 75.1966 52.3599 75.7175 49.8654 76.0891C48.7139 76.2609 47.5708 75.8442 46.5065 75.3543C45.5154 74.8982 45.1354 74 45.5098 73.1188C45.8927 72.2206 46.7515 71.8433 47.7819 72.246C49.1981 72.8006 50.5805 72.7894 51.9911 72.2798C53.0863 71.8828 54.1985 71.8997 55.2937 72.2938C56.6705 72.7894 58.0219 72.8006 59.4015 72.26C60.4883 71.8349 61.3752 72.2234 61.744 73.1666C62.0931 74.0591 61.7018 74.8588 60.6657 75.3627C59.6042 75.878 58.4696 76.0722 56.9239 76.1483L56.9295 76.1511Z" fill="white"/>
<path d="M50.268 46.0336C50.2764 47.2696 49.0545 48.0214 47.7622 47.5258C46.8134 47.1626 45.8758 46.7994 44.865 46.6164C42.607 46.2082 40.4869 46.8163 38.3612 47.4104C36.624 47.8947 35.7315 47.6413 35.3768 46.4982C35.0389 45.4057 35.6893 44.7075 37.4293 44.1472C41.2443 42.9197 45.034 42.5987 48.8124 44.2795C49.5979 44.6287 50.1863 45.1129 50.2652 46.0364L50.268 46.0336Z" fill="white"/>
<path d="M64.8299 43.1335C67.2343 43.08 69.3825 43.736 71.5195 44.4174C72.5049 44.7327 72.9695 45.5999 72.733 46.4502C72.4711 47.3906 71.6603 47.8748 70.5932 47.6383C69.4332 47.3821 68.2901 47.0358 67.1329 46.7627C64.9115 46.2334 62.7548 46.4446 60.6742 47.3962C60.0829 47.6665 59.4804 47.8354 58.8525 47.5651C58.2134 47.2892 57.8587 46.7627 57.8446 46.0842C57.8277 45.3099 58.2697 44.7778 58.9595 44.4484C60.8572 43.5474 62.8421 43.0491 64.8299 43.1335Z" fill="white"/>
<path d="M9.84864 16.5157C9.83456 17.0873 9.5333 17.611 8.91952 17.9291C8.19875 18.3036 7.54274 18.115 6.99372 17.5885C6.05615 16.6903 5.14956 15.764 4.23171 14.849C3.06609 13.6862 1.89484 12.5262 0.740478 11.3493C-0.115436 10.4765 -0.202717 9.45446 0.487082 8.74777C1.22474 7.98758 2.16512 8.02418 3.07453 8.92514C5.12141 10.9439 7.14575 12.9851 9.17573 15.0179C9.55583 15.4008 9.84301 15.8316 9.85146 16.5157H9.84864Z" fill="white"/>
<path d="M43.1166 57.4195C40.8135 57.535 38.9863 57.2731 37.235 56.5692C36.258 56.1779 35.8273 55.26 36.1651 54.3647C36.4805 53.5313 37.3702 53.0893 38.3359 53.4243C40.7854 54.269 43.2095 54.2746 45.6647 53.444C46.7092 53.0893 47.6045 53.5285 47.9171 54.4013C48.2465 55.3248 47.7678 56.2398 46.7036 56.6284C45.4113 57.0986 44.0908 57.4561 43.1166 57.4223V57.4195Z" fill="white"/>
<path d="M67.1441 57.4166C64.8861 57.5349 63.0954 57.273 61.3667 56.6114C60.3503 56.2229 59.8857 55.3782 60.1588 54.4716C60.4263 53.5791 61.347 53.0751 62.3578 53.4186C64.8467 54.2689 67.3018 54.2717 69.7879 53.413C70.7395 53.0864 71.6433 53.5509 71.9417 54.39C72.2627 55.2853 71.8263 56.1947 70.8352 56.5776C69.5176 57.0844 68.1633 57.442 67.1441 57.4166Z" fill="white"/>
<path d="M53.7311 67.6398C52.3289 67.5356 50.9353 67.3948 49.612 66.8655C48.6406 66.477 48.1676 65.6605 48.4154 64.813C48.6913 63.8698 49.5388 63.3236 50.5664 63.6586C52.6837 64.3541 54.7475 64.3372 56.8647 63.6586C57.898 63.3264 58.7427 63.8557 59.0242 64.7989C59.2776 65.6464 58.8187 66.4657 57.8473 66.8627C56.5297 67.4005 55.1304 67.53 53.7283 67.6398H53.7311Z" fill="white"/>
</svg>
