<svg width="108" height="108" viewBox="0 0 108 108" fill="none" xmlns="http://www.w3.org/2000/svg">
<path d="M11.933 108.003C8.27712 104.116 4.63528 100.221 0.956853 96.3567C0.334869 95.7038 -0.00567382 95.0565 0.0421711 94.1306C0.115346 92.7656 0.0590575 91.3921 0.0618719 90.0243C0.0618719 89.043 0.570341 88.5515 1.58728 88.5496C7.55382 88.5496 13.5232 88.5496 19.4897 88.5496H20.866C20.2834 87.8572 19.8246 87.3112 19.3687 86.7681C17.7335 84.8121 16.3826 82.6703 15.5692 80.2555C15.2203 79.217 14.694 78.9243 13.6639 78.9834C11.1928 79.1213 8.77246 78.9356 6.49279 77.7704C1.97848 75.4542 -0.647358 70.5008 0.137861 65.6234C0.968111 60.459 4.91391 56.4991 10.0108 55.7533C10.7341 55.6464 11.4827 55.6773 12.2173 55.6717C14.0101 55.6576 14.0101 55.6633 14.0101 53.8226C14.0101 52.8404 14.0523 51.8554 13.9988 50.8731C13.9481 49.9303 14.2774 49.5644 15.2625 49.5785C18.4568 49.6264 21.6512 49.5954 24.8455 49.5954C36.6745 49.5954 48.5062 49.5954 60.3352 49.5954C61.9028 49.5954 61.9056 49.5982 61.9056 51.1771C61.9056 55.1426 61.9309 59.1109 61.8887 63.0764C61.8775 64.0333 62.1561 64.3429 63.1383 64.3373C70.6866 64.3007 78.232 64.3119 85.7802 64.3176C95.2366 64.326 102.909 71.1284 103.995 80.5173C104.276 82.9517 104.065 85.3693 102.954 87.6096C102.56 88.4061 102.793 88.558 103.579 88.5468C105.05 88.5271 106.522 88.5834 107.994 88.6087V95.5603C103.97 99.6158 100.069 103.79 96.1963 107.989H11.933V108.003ZM38.0085 56.2149C32.6724 56.2149 27.3335 56.2374 21.9974 56.1952C20.9757 56.1867 20.5817 56.4203 20.5958 57.532C20.6549 62.446 20.5817 67.3627 20.6324 72.2795C20.6887 77.5678 22.8895 81.8485 27.0323 85.0963C31.0006 88.2062 35.5909 88.8761 40.4739 88.3976C48.8327 87.5814 55.2242 80.6777 55.2861 72.2823C55.3199 67.3684 55.2636 62.4516 55.3199 57.5348C55.334 56.426 54.9343 56.1867 53.9127 56.1952C48.6104 56.2374 43.308 56.2149 38.0085 56.2149ZM55.0919 88.4539C55.3537 88.4989 55.4831 88.5411 55.6098 88.5411C67.6132 88.5411 79.6195 88.5693 91.6229 88.5214C94.4908 88.5102 96.8239 86.481 97.3671 83.8242C98.5576 77.9815 93.2637 71.241 87.2972 70.9511C86.3431 70.9061 86.0617 71.2438 86.0898 72.1472C86.1377 73.6895 86.0814 75.2374 86.1095 76.7797C86.1236 77.5621 85.8703 77.9477 85.0231 77.9224C83.5512 77.8802 82.0737 77.8858 80.6017 77.9224C79.7912 77.9421 79.4703 77.6353 79.49 76.8135C79.5294 75.2009 79.4731 73.5826 79.5097 71.9699C79.5266 71.2044 79.2536 70.8836 78.474 70.9061C77.2104 70.9399 75.9467 70.9511 74.683 70.9004C73.7852 70.8639 73.4165 71.1763 73.4475 72.1078C73.501 73.6867 73.4447 75.2656 73.4672 76.8445C73.4785 77.5903 73.2055 77.9365 72.4202 77.9196C70.9117 77.8858 69.4004 77.8886 67.8919 77.9196C67.1207 77.9336 66.8336 77.6156 66.8477 76.8501C66.8787 75.2009 66.8336 73.5516 66.8646 71.9024C66.8787 71.1734 66.586 70.8836 65.8711 70.9089C65.0296 70.937 64.1853 70.9089 63.3438 70.9145C61.9253 70.9202 61.9338 70.923 61.9028 72.2992C61.8043 76.4533 60.7433 80.3287 58.5987 83.903C57.6277 85.5269 56.4063 86.9566 55.0891 88.4539H55.0919ZM8.81467 95.0734C10.7116 97.0913 12.4368 98.8813 14.1029 100.725C14.694 101.378 15.3216 101.628 16.2081 101.625C29.5034 101.6 42.7986 101.566 56.0939 101.651C58.0414 101.662 59.5303 101.307 60.6701 99.644C61.2583 98.7884 62.1083 98.1129 62.8259 97.3446C63.4845 96.6382 64.1262 95.9177 64.8917 95.0734H8.81467ZM99.1543 95.2648C99.1092 95.1803 99.0642 95.0987 99.0192 95.0143H97.8793C91.4935 95.0143 85.0991 95.2254 78.7273 94.9298C75.3219 94.7722 72.7917 95.6278 70.8048 98.3719C69.9998 99.4836 68.9473 100.415 67.9453 101.493C68.193 101.558 68.2887 101.603 68.3872 101.603C76.4223 101.606 84.4546 101.606 92.4898 101.608C92.85 101.608 93.1877 101.575 93.4551 101.29C95.352 99.2809 97.2545 97.2742 99.1515 95.2676L99.1543 95.2648ZM14.0073 67.253H14.0101C14.0101 66.3045 14.0241 65.3589 14.0073 64.4104C13.9594 61.8831 14.4829 62.0857 11.5897 62.173C8.92725 62.2518 7.01627 64.1205 6.59974 66.8533C6.27608 68.9782 7.78742 71.362 9.94888 72.1416C10.9677 72.5075 12.0287 72.3752 13.0757 72.4118C13.7455 72.4343 14.0213 72.1303 14.0129 71.4633C13.9904 70.0618 14.0073 68.6574 14.0073 67.253Z" fill="white"/>
<path d="M108 17.6266C107.561 19.3574 107.167 21.0967 106.438 22.746C105.129 25.6954 103.052 28.037 100.753 30.2407C96.2695 34.5383 91.8284 38.8809 87.3676 43.2011C85.7042 44.8137 84.0212 46.4038 82.3804 48.039C81.8485 48.5681 81.4911 48.6216 80.9169 48.0615C74.2102 41.5209 67.45 35.0336 60.763 28.4733C57.0874 24.8652 55.2861 20.365 55.1145 15.254C54.909 9.1383 58.7282 3.4335 64.4358 1.12569C70.1715 -1.19338 76.7741 0.264482 80.931 4.81819C81.4601 5.39796 81.7078 5.47113 82.2876 4.86603C86.4444 0.545922 91.5132 -0.985114 97.263 0.62754C102.982 2.23175 106.444 6.19443 107.828 11.9668C107.876 12.1694 107.941 12.3692 108 12.5719V17.6266ZM61.7058 15.0345C61.7058 18.3752 63.1524 21.7243 65.66 24.1532C70.7035 29.0333 75.7609 33.8966 80.7818 38.7965C81.4263 39.4241 81.8007 39.4804 82.4761 38.819C87.4098 33.9782 92.3716 29.1684 97.3474 24.3699C99.7397 22.062 101.116 19.3124 101.501 15.9858C102.18 10.1149 96.8014 5.32478 91.1079 6.88959C87.5224 7.87463 85.5269 10.3654 84.9584 13.9932C84.8402 14.7446 84.5672 15.0035 83.8242 14.981C82.3157 14.9388 80.8072 14.9444 79.2987 14.981C78.5782 14.9979 78.3052 14.6996 78.2517 14.0044C77.9703 10.1965 74.669 6.47025 69.8676 6.59408C65.0915 6.72073 61.7086 10.3598 61.7086 15.0345H61.7058Z" fill="white"/>
<path d="M21.0996 29.1404C24.3981 29.1404 27.6994 29.1347 30.9979 29.1404C36.6689 29.1516 40.6991 32.9623 41.0059 38.6305C41.0706 39.821 41.0115 41.0171 41.0228 42.2105C41.0284 42.8324 40.8342 43.2039 40.1193 43.1899C38.5039 43.1645 36.8912 43.1674 35.2757 43.1871C34.6256 43.1955 34.4117 42.8775 34.4202 42.2808C34.4342 41.2282 34.4258 40.1756 34.4202 39.1231C34.4005 36.9363 33.2691 35.7373 31.0738 35.6304C30.1282 35.5853 29.1797 35.6163 28.2313 35.6163C22.124 35.6163 16.0168 35.6304 9.90951 35.6107C4.79292 35.5938 1.06383 32.3769 0.222322 27.3054C-0.658587 21.9946 3.79662 16.6134 9.20872 16.5206C12.7521 16.4586 16.2982 16.5065 19.8444 16.5009C22.383 16.4952 23.5059 15.3779 23.5143 12.8506C23.5228 10.2332 23.3905 10.6385 25.7884 10.6075C26.9451 10.5934 28.1046 10.6103 29.2642 10.6075C29.7426 10.6075 30.0691 10.7398 30.1057 11.3027C30.4096 15.7044 29.3036 19.8022 24.4178 22.1719C23.3342 22.6982 22.1775 22.9684 20.9589 22.9684C17.59 22.9627 14.2184 22.9684 10.8495 22.9768C10.4639 22.9768 10.0756 22.9712 9.6928 23.019C7.7593 23.2611 6.61384 24.536 6.72079 26.3034C6.82492 27.9808 8.13362 29.1207 10.0418 29.1347C12.7436 29.1544 15.4483 29.1404 18.1501 29.1404C19.1323 29.1404 20.1145 29.1404 21.0996 29.1404Z" fill="white"/>
</svg>
