<svg width="108" height="109" viewBox="0 0 108 109" fill="none" xmlns="http://www.w3.org/2000/svg">
<path d="M51.0093 108.017C34.2952 108.017 17.5783 108.011 0.864135 108.037C0.143553 108.037 0 107.896 0 107.172C0.025333 83.6437 0.0197034 60.1179 0.0197034 36.5892C0.923245 34.6751 2.4573 33.9686 4.53741 33.9939C9.94459 34.0531 15.3518 33.9939 20.7589 34.0305C21.7694 34.0362 22.1044 33.704 22.096 32.6907C22.0537 28.0914 22.0678 23.492 22.0847 18.8927C22.0903 17.3502 22.0312 15.8133 22.2451 14.268C23.2894 6.76103 29.451 0.740229 36.8116 0.0928315C44.6592 -0.596788 51.7186 3.99411 54.1421 11.3407C54.9134 13.6797 55.026 16.092 54.9922 18.5183C54.9781 19.602 55.5917 19.6668 56.4221 19.6696C57.244 19.6752 57.7985 19.5316 57.7479 18.5324C57.6775 17.0575 57.7479 15.5769 57.9533 14.1188C58.916 7.32961 64.0248 1.8774 70.7859 0.374309C77.3415 -1.08374 84.2292 1.78732 88.001 7.49287C90.4077 11.1352 90.8637 15.1885 90.6751 19.3994C90.6188 20.6266 89.9573 21.4175 88.9749 21.426C87.9926 21.4344 87.2776 20.6604 87.227 19.4388C87.1819 18.3523 87.2157 17.2629 87.1988 16.1736C87.0834 8.06145 79.4976 2.01532 71.5656 3.71263C65.4997 5.01024 61.2044 10.2767 61.1988 16.4776C61.1847 30.0645 61.1931 43.6543 61.196 57.2412C61.196 57.5226 61.2016 57.8041 61.2128 58.0828C61.2269 58.3896 61.3789 58.6063 61.6576 58.7442C63.0312 59.431 64.2331 58.7245 64.2331 57.2215C64.2331 43.9498 64.2359 30.6781 64.2303 17.4065C64.2303 16.3144 64.2922 15.2279 64.5484 14.1667C65.7587 9.13107 70.3383 6.01511 75.6442 6.60621C80.3871 7.13539 84.142 11.4589 84.1617 16.4635C84.1842 21.73 84.1673 26.9964 84.1673 32.2629C84.1673 34.0446 84.1786 34.0137 86.0054 34.0249C86.9342 34.0305 87.241 33.6674 87.2213 32.7723C87.1819 31.0187 87.1904 29.2623 87.227 27.5059C87.2551 26.2083 87.9757 25.4033 88.9862 25.4258C90.0052 25.4511 90.661 26.2533 90.6751 27.565C90.6948 29.2511 90.6751 30.9343 90.6835 32.6203C90.6891 33.9489 90.737 34.0024 92.0459 34.0024C95.874 34.008 99.6992 34.0024 103.527 34.008C106.593 34.0137 107.98 35.3957 107.98 38.4328C107.98 60.5175 107.972 82.6023 108.003 104.687C108.003 106.12 107.634 107.226 106.424 108.008H56.9091C56.166 107.454 55.7606 106.75 56.1097 105.821C56.4474 104.921 57.2131 104.726 58.0856 104.766C58.4713 104.783 58.8569 104.766 59.2453 104.766C73.9215 104.766 88.595 104.766 103.271 104.766C104.619 104.766 104.656 104.732 104.656 103.423C104.659 99.6316 104.659 95.8401 104.656 92.0486C104.656 90.8495 104.642 90.8467 103.584 91.2774C99.3333 93.0057 95.4123 92.4005 91.8122 89.5913C90.3823 88.4767 89.7349 88.4654 88.2741 89.5998C83.7141 93.1408 78.2844 93.1267 73.7301 89.566C72.334 88.4767 71.6613 88.4767 70.2792 89.5716C65.7897 93.1295 60.2502 93.1408 55.7353 89.597C54.3054 88.4767 53.6242 88.4767 52.1915 89.597C47.671 93.1408 42.1512 93.1295 37.6476 89.5688C36.2627 88.4739 35.5984 88.4739 34.1967 89.5688C29.6367 93.1295 24.2183 93.1408 19.6499 89.5998C18.1834 88.4626 17.5501 88.4767 16.1118 89.5941C12.5117 92.3892 8.59068 93.0085 4.34038 91.2802C3.28202 90.8495 3.26795 90.8523 3.26795 92.0486C3.26514 95.736 3.26795 99.4205 3.26795 103.108C3.26795 104.215 3.83466 104.769 4.96807 104.769C19.8892 104.769 34.8103 104.771 49.7314 104.763C50.6293 104.763 51.4512 104.867 51.8143 105.821C52.1662 106.75 51.7552 107.454 51.0149 108.011L51.0093 108.017ZM3.26514 66.5778C3.26514 68.1934 3.27921 69.8091 3.25669 71.4248C3.25106 71.9737 3.45091 72.3171 3.91816 72.6267C7.48729 74.9742 10.865 74.8476 14.2174 72.2101C16.579 70.3524 19.1545 70.3327 21.457 72.1538C25.0993 75.0333 28.6994 75.0193 32.384 72.1116C34.5795 70.3777 37.2648 70.3833 39.4603 72.12C43.1308 75.0277 46.6943 75.0361 50.3844 72.1454C52.6785 70.3495 55.2483 70.3524 57.5396 72.1538C61.1622 75.0052 64.7848 75.0136 68.3849 72.1763C70.7099 70.3467 73.3333 70.3524 75.6245 72.1876C79.1204 74.9911 82.85 74.9967 86.3882 72.2073C88.7751 70.3242 91.3309 70.3298 93.7094 72.2214C96.9464 74.7941 100.24 74.9545 103.747 72.79C104.442 72.3621 104.679 71.8808 104.667 71.0898C104.628 68.14 104.653 65.1901 104.65 62.2402C104.65 60.9285 104.65 60.9398 103.477 61.4098C99.3389 63.0621 95.494 62.4851 91.9671 59.8082C90.2866 58.5331 89.7969 58.505 88.0967 59.8251C83.8239 63.1437 78.2141 63.1522 73.961 59.8448C72.2186 58.4909 71.7795 58.4937 70.0175 59.8645C65.8234 63.1297 60.1545 63.1325 55.9605 59.873C54.1815 58.4909 53.734 58.4937 51.9241 59.8927C47.7188 63.1409 42.0414 63.1212 37.8699 59.8448C36.1473 58.4937 35.7054 58.505 33.9236 59.8589C31.3453 61.818 28.4573 62.6427 25.2232 62.1698C23.0445 61.8489 21.1474 60.937 19.4501 59.5521C18.296 58.612 17.4854 58.5669 16.4214 59.4395C12.6721 62.5104 8.57661 63.1297 4.11801 61.2381C3.41432 60.9398 3.24543 61.1649 3.25388 61.8377C3.27077 63.4168 3.25951 64.9987 3.25951 66.5778H3.26514ZM104.653 81.6649C104.653 80.19 104.639 78.7151 104.659 77.2401C104.667 76.5786 104.527 76.3338 103.809 76.6406C99.3896 78.5349 95.3223 77.8875 91.5899 74.8898C90.464 73.9862 89.6421 73.9328 88.5612 74.8616C84.1617 78.6419 77.8369 78.5997 73.4965 74.8673C72.4128 73.9356 71.5684 73.9525 70.4734 74.8898C66.1387 78.5996 59.8505 78.625 55.4989 74.8954C54.3786 73.9356 53.5679 74.0031 52.3745 74.9123C47.4711 78.6503 42.3314 78.6503 37.5012 74.9207C36.2993 73.9947 35.5618 73.9862 34.3796 74.887C29.4313 78.6616 24.3787 78.6616 19.4135 74.8926C18.2257 73.9891 17.4628 73.9834 16.2919 74.9179C12.5877 77.8734 8.55128 78.5321 4.16305 76.6687C3.42276 76.3535 3.24262 76.5392 3.24825 77.2852C3.27077 80.1647 3.26795 83.0442 3.24825 85.9237C3.24543 86.5176 3.46217 86.8779 3.96601 87.2016C7.583 89.5238 10.8481 89.383 14.2625 86.7118C16.5283 84.9385 19.2362 84.7837 21.3163 86.6302C24.5561 89.5041 29.2877 89.445 32.4515 86.6386C34.4922 84.8259 37.2676 84.9413 39.4265 86.6386C43.1786 89.5885 46.652 89.5913 50.4323 86.6499C52.6756 84.9047 55.2624 84.9132 57.503 86.6724C61.1931 89.5688 64.7341 89.5716 68.4327 86.6837C70.7127 84.9019 73.3417 84.9104 75.5907 86.7062C79.1542 89.5547 82.8303 89.5576 86.436 86.7146C88.7638 84.8822 91.3422 84.8907 93.6756 86.74C96.9661 89.3493 100.248 89.5069 103.798 87.3029C104.462 86.892 104.687 86.4219 104.662 85.6788C104.617 84.3474 104.648 83.0104 104.648 81.6762L104.653 81.6649ZM67.8839 57.092C68.0021 57.0329 68.1316 56.985 68.2357 56.9118C71.1265 54.8542 73.1587 54.8993 75.9623 57.0835C79.1683 59.583 83.0245 59.5099 86.315 56.8865C88.7582 54.9415 91.2943 54.9246 93.715 56.8386C96.9379 59.386 100.124 59.5662 103.657 57.472C104.38 57.0441 104.679 56.5741 104.673 55.7212C104.636 50.1423 104.656 44.5606 104.653 38.9817C104.653 37.5518 104.597 37.4927 103.17 37.4927C91.8348 37.4927 80.4969 37.4927 69.1618 37.4927C67.7347 37.4927 67.7093 37.5209 67.7093 38.9958C67.7093 44.6816 67.7065 50.3675 67.715 56.0533C67.715 56.3883 67.6024 56.7514 67.8867 57.0976L67.8839 57.092ZM22.0763 47.4035C22.0763 44.4902 22.0566 41.5741 22.0875 38.6608C22.096 37.808 21.8032 37.473 20.9278 37.4758C15.4503 37.5012 9.97274 37.4983 4.49801 37.4758C3.60572 37.473 3.24543 37.777 3.24825 38.7003C3.27358 44.4593 3.26795 50.2155 3.25388 55.9745C3.25388 56.56 3.43965 56.9343 3.94913 57.2637C7.54077 59.5915 10.8735 59.4564 14.2456 56.7992C16.4636 55.0513 18.8871 54.9584 21.153 56.529C21.3754 56.6838 21.5752 57.016 21.8623 56.8921C22.2226 56.7345 22.065 56.332 22.0678 56.0364C22.0791 53.1569 22.0734 50.2774 22.0734 47.4007L22.0763 47.4035ZM80.722 24.404C80.722 24.404 80.7192 24.404 80.7164 24.404C80.7164 21.7722 80.7164 19.1432 80.7164 16.5114C80.7164 16.3369 80.7023 16.1596 80.6939 15.985C80.4856 12.5398 77.5892 9.86009 74.1214 9.90794C70.6705 9.95579 67.7544 12.7593 67.7262 16.1764C67.6812 21.7187 67.7262 27.261 67.6953 32.8033C67.6896 33.7237 68.0302 34.0334 68.931 34.0249C72.4382 33.9911 75.9482 33.9883 79.4554 34.0249C80.4321 34.0362 80.7474 33.6449 80.7361 32.7132C80.7023 29.9435 80.7249 27.1709 80.7249 24.3984L80.722 24.404ZM25.5469 36.4118C25.5469 43.08 25.5469 49.7482 25.5469 56.4164C25.5469 56.9428 25.5497 57.4692 25.5581 57.9955C25.5638 58.3699 25.6679 58.6711 26.0732 58.8146C27.627 59.3635 28.5953 58.7217 28.5953 57.1201C28.5953 43.5388 28.5868 29.9548 28.6037 16.3735C28.6093 11.4448 32.3783 7.14665 37.0903 6.61184C42.3651 6.0123 46.8997 9.06351 48.1664 14.0457C48.552 15.5628 48.5379 17.1053 48.521 18.6478C48.5126 19.3515 48.7941 19.7005 49.5203 19.6583C49.8693 19.6386 50.224 19.6386 50.573 19.6583C51.2964 19.7034 51.592 19.3684 51.5694 18.6563C51.5244 17.2911 51.5835 15.9287 51.3977 14.5608C50.4126 7.2902 43.1251 2.15043 35.9334 3.69574C29.8028 5.01305 25.5919 10.1359 25.5581 16.4101C25.5244 23.0783 25.5497 29.7465 25.5469 36.4147V36.4118ZM44.8506 51.4005C40.924 51.4005 36.9974 51.4118 33.0708 51.3892C32.277 51.3836 31.8998 51.6398 31.928 52.4757C31.9646 53.6326 31.9505 54.7895 31.9308 55.9464C31.9167 56.6838 32.0434 56.9175 32.7977 56.4446C35.179 54.9471 37.3858 55.1104 39.601 56.8527C43.0942 59.6027 46.7928 59.6112 50.2662 56.8527C52.366 55.1836 54.5756 54.9527 56.8978 56.3123C57.6325 56.7429 57.7394 56.4136 57.7394 55.7859C57.7394 54.7698 57.7 53.7508 57.7535 52.7375C57.807 51.7495 57.4439 51.3724 56.4221 51.3836C52.5659 51.4286 48.7096 51.4005 44.8506 51.4033V51.4005ZM38.4836 19.6527C40.3047 19.6527 42.1287 19.6274 43.9499 19.6639C44.7746 19.6808 45.0927 19.3543 45.0561 18.5437C45.0167 17.6683 45.0758 16.7901 45.0279 15.9147C44.859 12.7959 42.1934 10.15 39.0099 9.91357C35.8405 9.67713 32.7752 11.9149 32.1757 14.9661C31.9477 16.1342 31.9505 17.3333 31.9223 18.5268C31.9026 19.4162 32.2798 19.6836 33.1214 19.6639C34.9088 19.6217 36.6962 19.6499 38.4836 19.6499V19.6527ZM44.8956 37.4871C41.349 37.4871 37.8024 37.4815 34.2558 37.4871C31.7281 37.4927 31.9364 37.2141 31.9336 39.8036C31.9336 41.4193 31.9617 41.4503 33.5887 41.4503C40.786 41.4503 47.9862 41.4531 55.1836 41.4503C57.9477 41.4503 57.7422 41.6755 57.7394 38.8888C57.7394 37.5603 57.655 37.4899 56.2729 37.4871C52.4814 37.4843 48.6899 37.4871 44.8956 37.4871ZM44.783 47.9271C48.6759 47.9271 52.5659 47.9327 56.4587 47.9243C57.6691 47.9214 57.7507 47.8004 57.745 46.3395C57.7394 44.9913 57.6606 44.8899 56.4418 44.8899C48.6927 44.8843 40.9465 44.9096 33.1974 44.8646C32.004 44.859 31.8998 45.4304 31.9251 46.3592C31.9646 47.8595 31.9758 47.9271 33.2143 47.9299C37.0705 47.9383 40.9268 47.9327 44.783 47.9299V47.9271ZM44.9012 22.9882C41.045 22.9882 37.1888 22.9882 33.3297 22.9882C31.9983 22.9882 31.9392 23.0586 31.9336 24.4462C31.928 25.9634 31.9983 26.0647 33.2931 26.0647C40.9718 26.0704 48.6505 26.0704 56.3292 26.0647C57.6437 26.0647 57.7422 25.9296 57.7422 24.4744C57.7422 23.0811 57.6634 22.991 56.3658 22.9882C52.5434 22.9826 48.7237 22.9882 44.9012 22.9882ZM38.4273 34.0137C40.2512 34.0137 42.0724 33.9855 43.8964 34.0249C44.7661 34.0446 45.1067 33.7012 45.0561 32.8427C45.0138 32.0743 45.0279 31.3002 45.0504 30.529C45.0701 29.8365 44.814 29.4959 44.0765 29.4988C40.361 29.5156 36.6455 29.5156 32.9272 29.4988C32.1982 29.4959 31.9111 29.8056 31.9308 30.5093C31.9505 31.3143 31.9646 32.1221 31.928 32.9272C31.8914 33.7575 32.2657 34.039 33.0623 34.0249C34.8497 33.9911 36.6371 34.0137 38.4273 34.0137ZM51.5638 31.7534H51.5582C51.5582 31.2636 51.561 30.7767 51.5582 30.2869C51.5554 29.8422 51.3583 29.5945 50.8911 29.51C48.9348 29.1554 48.5239 29.4819 48.5239 31.4381C48.5239 31.7872 48.5239 32.1362 48.5239 32.4852C48.5323 33.9827 48.5633 34.0137 50.0523 34.0137C51.5413 34.0137 51.5638 33.9911 51.5666 32.488C51.5666 32.2432 51.5666 31.9983 51.5666 31.7562L51.5638 31.7534ZM55.0006 31.6492C55.0006 31.6492 55.0147 31.6492 55.0232 31.6492C55.0232 32.1728 55.0091 32.6992 55.0288 33.2227C55.0401 33.6055 55.2146 33.8673 55.6199 33.9799C57.0892 34.388 57.7394 33.9236 57.7422 32.4318C57.7422 31.7309 57.7394 31.0328 57.7282 30.3319C57.7197 29.9041 57.5508 29.617 57.0836 29.5156C55.5186 29.1751 55.0091 29.5579 55.0006 31.1257C55.0006 31.3002 55.0006 31.4747 55.0006 31.6492Z" fill="white"/>
</svg>
