<svg width="108" height="108" viewBox="0 0 108 108" fill="none" xmlns="http://www.w3.org/2000/svg">
<path d="M60.8599 107.979C46.1858 107.979 31.5117 107.979 16.8377 107.979C12.9426 107.979 10.806 105.839 10.803 101.941C10.803 89.4398 10.803 76.9354 10.803 64.4339C10.803 62.9065 10.809 62.8915 12.3574 62.9035C14.8511 62.9215 14.548 62.6364 14.548 65.1421C14.557 77.1964 14.551 89.2508 14.554 101.302C14.554 103.724 15.0492 104.228 17.4168 104.231C31.4547 104.231 45.4926 104.231 59.5305 104.231C60.4348 104.231 60.6869 103.837 60.2867 103.049C58.5012 99.5346 59.1404 95.2765 61.9822 92.4857C62.6604 91.8195 62.5794 91.5404 61.9462 90.9433C60.8419 89.905 60.0497 88.6086 59.6866 87.1262C59.4795 86.283 59.1914 86.0069 58.2492 86.1329C50.1919 87.2162 42.7529 85.5087 36.3971 80.4043C26.9895 72.8482 23.2685 62.8855 25.9692 51.1402C28.682 39.3379 36.4331 31.9349 48.2564 29.3511C64.6349 25.7712 80.4944 37.2763 82.643 53.931C82.904 55.9505 82.868 57.9671 82.775 59.9807C82.733 60.8839 82.955 61.121 83.8523 61.118C91.0033 61.085 98.1513 61.1 105.302 61.1C107.517 61.1 108 61.5861 108 63.8037C108 77.6556 108 91.5044 108 105.356C108 107.478 107.49 107.979 105.332 107.979C90.5081 107.979 75.684 107.979 60.8599 107.979ZM28.991 57.583C29.0571 58.7143 29.0571 59.7316 29.1861 60.7309C31.0406 75.0148 44.4513 84.8005 58.5853 82.2108C59.2665 82.0848 59.7286 81.8177 59.9777 81.1155C60.4248 79.8642 61.178 78.7809 62.1743 77.9016C62.6964 77.4425 62.5734 77.2024 62.1383 76.7643C59.3085 73.8985 58.5433 70.5196 59.9717 66.7595C61.322 63.2035 64.5029 61.13 68.476 61.121C69.4423 61.121 69.8324 60.7699 69.8924 59.8516C69.9794 58.5493 70.0755 57.2619 69.9524 55.9415C69.2952 48.8025 63.5366 42.6958 56.4457 41.7236C53.841 41.3665 53.874 41.3665 53.916 38.8188C53.931 37.9785 54.2311 37.7025 55.0443 37.7385C57.8981 37.8645 60.5898 38.5907 63.1075 39.9081C70.6426 43.8512 74.7598 51.7194 73.7125 60.1577C73.6224 60.8749 73.8115 61.121 74.5077 61.106C75.669 61.082 76.8303 61.082 77.9887 61.106C78.6008 61.118 78.8259 60.8689 78.8949 60.2567C79.159 57.8951 79.045 55.5544 78.6458 53.2198C76.2932 39.491 62.6814 30.2094 49.0996 33.0722C37.2193 35.5749 29.1531 45.4566 28.991 57.589V57.583ZM85.3827 68.287C90.9583 68.287 96.5308 68.296 102.106 68.284C104.519 68.278 104.186 68.602 104.267 66.1264C104.297 65.1631 104.027 64.83 103.013 64.833C91.6395 64.866 80.2663 64.851 68.8931 64.857C67.8338 64.857 66.8046 65.0401 65.8623 65.5532C63.7497 66.7055 62.7354 69.0642 63.3026 71.4738C63.8577 73.8175 65.9253 75.453 68.6291 75.459C80.1523 75.492 91.6755 75.471 103.199 75.486C103.958 75.486 104.333 75.2639 104.252 74.4627C104.222 74.1656 104.249 73.8655 104.249 73.5654C104.249 72.5491 103.735 72.04 102.707 72.038C91.4084 72.038 80.1103 72.044 68.8091 72.032C66.2044 72.032 66.5855 72.3771 66.4925 69.6763C66.4565 68.611 66.7775 68.2539 67.8728 68.263C73.7095 68.311 79.5461 68.287 85.3827 68.284V68.287ZM85.4577 82.6609C91.3364 82.6609 97.212 82.646 103.091 82.676C103.955 82.679 104.372 82.4389 104.252 81.5326C104.219 81.2746 104.249 81.0105 104.246 80.7464C104.246 79.7341 103.73 79.227 102.698 79.225C91.5794 79.225 80.4613 79.225 69.3403 79.225C69.0042 79.225 68.6651 79.216 68.329 79.243C65.4182 79.4831 63.5516 81.2235 63.1375 84.0773C62.8224 86.2499 64.3529 88.6686 66.5525 89.4518C67.4047 89.7549 68.293 89.851 69.2022 89.851C80.3953 89.845 91.5884 89.8479 102.785 89.8479C103.01 89.8479 103.235 89.8359 103.46 89.8479C104.042 89.878 104.27 89.5839 104.249 89.0257C104.234 88.6506 104.249 88.2785 104.249 87.9034C104.249 86.9131 103.759 86.417 102.779 86.415C91.4714 86.415 80.1673 86.421 68.8601 86.409C66.2104 86.406 66.5915 86.7601 66.4895 84.1014C66.4475 82.973 66.7925 82.6279 67.9389 82.6369C73.7785 82.691 79.6181 82.6609 85.4577 82.6609ZM85.3407 97.0379C91.1383 97.0379 96.9389 97.0379 102.737 97.0379C103.741 97.0379 104.244 96.5178 104.246 95.4775C104.246 95.3275 104.225 95.1744 104.249 95.0304C104.432 93.8991 103.973 93.572 102.827 93.578C91.6034 93.62 80.3773 93.602 69.1542 93.605C68.8931 93.605 68.6291 93.599 68.368 93.617C64.728 93.8871 62.4593 96.8849 63.3116 100.294C63.9207 102.728 66.0663 104.222 69.0312 104.225C79.4321 104.234 89.8329 104.228 100.234 104.228C101.245 104.228 102.256 104.198 103.265 104.237C103.991 104.264 104.312 103.991 104.246 103.259C104.219 102.962 104.243 102.661 104.243 102.361C104.243 101.317 103.705 100.794 102.629 100.792C91.3664 100.792 80.1042 100.798 68.8451 100.786C66.2044 100.783 66.5855 101.134 66.4835 98.4723C66.4384 97.332 66.8046 97.0049 67.9389 97.0169C73.7365 97.0679 79.5371 97.0409 85.3347 97.0409L85.3407 97.0379Z" fill="white"/>
<path d="M54.009 25.315C41.3545 25.315 28.703 25.315 16.0485 25.315C15.0562 25.315 14.559 25.8042 14.557 26.7824C14.557 27.7937 14.539 28.805 14.557 29.8133C14.566 30.4134 14.335 30.6625 13.7078 30.7105C10.803 30.9446 10.806 30.9596 10.806 28.0458C10.806 20.6697 10.806 13.2967 10.806 5.92064C10.809 2.1606 12.9666 0 16.7266 0C41.5825 0 66.4414 0 91.2973 0C95.0364 0 97.212 2.18161 97.215 5.92665C97.218 14.275 97.215 22.6233 97.215 30.9716C97.215 32.496 97.209 32.508 95.6546 32.499C93.1939 32.484 93.485 32.7541 93.464 30.3684C93.452 29.0571 93.4129 27.7457 93.479 26.4373C93.527 25.5191 93.1579 25.294 92.2996 25.297C87.3212 25.327 82.3429 25.312 77.3645 25.312C69.5773 25.312 61.7902 25.312 54.006 25.312L54.009 25.315ZM53.958 21.564C66.6845 21.564 79.4081 21.555 92.1346 21.582C93.1369 21.582 93.503 21.3419 93.491 20.2736C93.4339 15.6343 93.47 10.9921 93.464 6.34976C93.464 4.34221 92.8668 3.75404 90.8352 3.75404C66.2824 3.75404 41.7296 3.75404 17.1768 3.75404C15.1512 3.75404 14.56 4.34521 14.557 6.35577C14.551 10.923 14.557 15.4873 14.557 20.0546C14.557 21.0589 15.0772 21.562 16.1175 21.564C28.73 21.564 41.3425 21.564 53.958 21.564Z" fill="white"/>
<path d="M12.7205 59.4466C11.6702 59.4676 10.956 58.8104 10.806 57.6611C10.6319 56.3257 10.4969 54.9904 9.86673 53.757C8.21327 50.5191 5.50652 48.9407 1.95653 48.6916C1.08029 48.6316 0.441113 48.2625 0.129026 47.4463C-0.333102 46.2339 0.459118 45.0576 1.87251 44.9316C4.3392 44.7125 6.5328 43.9563 8.29129 42.1138C9.86973 40.4603 10.5599 38.4648 10.785 36.2442C10.929 34.8128 11.5352 34.1736 12.6365 34.1526C13.7828 34.1316 14.449 34.7888 14.572 36.2742C14.9922 41.3606 18.4071 43.8903 21.2969 44.5805C22.0561 44.7605 22.8483 44.8145 23.6226 44.9316C24.6909 45.0936 25.33 45.8018 25.324 46.8131C25.318 47.8184 24.6758 48.5626 23.5925 48.6586C21.2999 48.8597 19.2023 49.4688 17.4618 51.0893C15.5653 52.8538 14.7581 55.0624 14.548 57.5771C14.449 58.7714 13.7558 59.4286 12.7175 59.4466H12.7205ZM12.7895 42.996C12.4535 42.987 12.3604 43.2181 12.2374 43.3922C11.3972 44.5475 10.4099 45.5588 9.23656 46.372C8.70541 46.7411 8.86745 46.9721 9.29357 47.2722C10.4279 48.0735 11.4122 49.0427 12.2014 50.186C12.5735 50.7262 12.8166 50.6842 13.1737 50.174C13.9449 49.0637 14.8871 48.1065 16.0034 47.3383C16.5346 46.9721 16.6546 46.7111 16.0394 46.294C14.9201 45.5348 13.9929 44.5655 13.1917 43.4732C13.0626 43.2961 12.9096 43.1371 12.7925 42.996H12.7895Z" fill="white"/>
<path d="M30.6085 100.786C29.3361 100.786 28.0668 100.804 26.7944 100.783C22.8873 100.717 19.7905 97.4881 19.7935 93.506C19.7965 89.5268 22.9024 86.31 26.8274 86.2649C29.3692 86.2349 31.9109 86.2349 34.4526 86.2649C38.4317 86.31 41.5255 89.5388 41.5105 93.596C41.4955 97.5601 38.3717 100.735 34.4226 100.786C33.1502 100.804 31.8808 100.786 30.6085 100.786ZM30.6535 90.013C29.5312 90.013 28.4089 89.983 27.2896 90.019C25.114 90.091 23.5265 91.6214 23.5625 93.566C23.5985 95.4355 25.204 96.9779 27.2746 97.0229C29.5162 97.0709 31.7608 97.0709 34.0024 97.0229C36.121 96.9779 37.7775 95.3605 37.7355 93.4729C37.6935 91.6034 36.085 90.085 34.0174 90.016C32.8981 89.977 31.7758 90.01 30.6535 90.01V90.013Z" fill="white"/>
<path d="M106.19 46.789C106.196 47.8363 105.542 48.5505 104.375 48.6705C102.466 48.8656 100.732 49.3967 99.3246 50.8101C97.9802 52.1605 97.4371 53.8169 97.227 55.6475C97.071 57.0188 96.4168 57.676 95.2945 57.655C94.2262 57.634 93.62 56.9828 93.449 55.6745C92.8818 51.3563 90.7722 49.2527 86.442 48.6915C85.1486 48.5235 84.4975 47.8993 84.4915 46.819C84.4855 45.7297 85.1336 45.0875 86.415 44.9225C90.8022 44.3493 92.8758 42.2697 93.458 37.8525C93.623 36.5952 94.2922 35.938 95.3845 35.959C96.4228 35.98 97.065 36.6312 97.224 37.8255C97.8152 42.3087 99.8347 44.3163 104.357 44.9285C105.536 45.0875 106.187 45.7507 106.193 46.795L106.19 46.789ZM97.8662 46.741C97.8182 46.666 97.7792 46.5519 97.6981 46.4859C96.9389 45.8767 96.2667 45.1835 95.6426 44.4363C95.3725 44.1122 95.1384 44.3223 94.9074 44.5654C94.2202 45.2946 93.0168 45.9608 92.9448 46.738C92.8608 47.6412 94.3312 48.1184 94.8894 49.0006C95.2134 49.5137 95.5045 49.3397 95.8436 48.9556C96.3628 48.3734 96.9389 47.8423 97.4941 47.2931C97.6501 47.1401 97.8752 47.0381 97.8632 46.744L97.8662 46.741Z" fill="white"/>
<path d="M45.0605 55.7195C46.1018 55.7375 46.792 56.3827 46.897 57.58C47.1401 60.3408 48.2774 62.5104 50.7951 63.8547C51.7434 64.3589 52.7726 64.5209 53.8079 64.668C55.2183 64.869 55.8665 65.4482 55.8755 66.5525C55.8845 67.6718 55.2363 68.311 53.8439 68.461C50.606 68.8091 48.2954 70.3516 47.2781 73.5414C47.0771 74.1746 47.008 74.8588 46.915 75.522C46.735 76.7763 46.0778 77.4395 44.9885 77.4215C43.9502 77.4035 43.284 76.7553 43.152 75.558C42.9569 73.7755 42.4888 72.128 41.2194 70.7627C39.8331 69.2712 38.0896 68.6651 36.133 68.452C34.8367 68.311 34.1855 67.6688 34.1765 66.5915C34.1675 65.4992 34.8157 64.854 36.091 64.686C40.4842 64.1128 42.5578 62.0302 43.14 57.622C43.305 56.3587 43.9682 55.7045 45.0605 55.7225V55.7195ZM45.1145 64.0348C44.6944 64.0678 44.5894 64.3919 44.3883 64.5959C43.7581 65.2261 42.6898 65.8143 42.6208 66.5045C42.5368 67.3267 43.8632 67.7318 44.3613 68.512C44.7904 69.1872 45.2196 69.2983 45.6637 68.542C46.1498 67.7198 47.5962 67.3537 47.4132 66.4535C47.2511 65.6612 46.1618 65.0581 45.4806 64.3709C45.3546 64.2449 45.2166 64.1278 45.1175 64.0348H45.1145Z" fill="white"/>
<path d="M50.7711 41.1564C50.7861 41.2975 50.8071 41.3425 50.7921 41.3695C50.2309 42.4918 48.9646 42.1197 48.1064 42.6238C47.6292 42.9029 47.3411 42.5938 47.1641 42.1617C45.9157 39.1159 45.2736 39.455 48.7635 38.4137C50.0719 38.0236 50.1859 38.1226 50.462 39.494C50.579 40.0791 50.6841 40.6703 50.7741 41.1534L50.7711 41.1564Z" fill="white"/>
<path d="M50.417 18.128C45.8167 18.128 41.2164 18.1311 36.6162 18.128C34.7226 18.128 34.1705 17.5609 34.1645 15.6344C34.1585 13.5398 34.1525 11.4452 34.1675 9.35061C34.1795 7.8652 34.8187 7.19902 36.2741 7.19601C45.6967 7.18401 55.1223 7.18401 64.5449 7.19601C66.0003 7.19601 66.6455 7.8652 66.6575 9.34761C66.6755 11.5532 66.6755 13.7618 66.6575 15.9675C66.6455 17.4859 65.9943 18.122 64.4369 18.125C59.7616 18.1371 55.0863 18.128 50.414 18.128H50.417ZM50.318 10.9411C46.873 10.9411 43.4311 10.9321 39.9861 10.9441C37.6605 10.9531 37.9875 10.659 37.8975 13.0656C37.8585 14.1099 38.2006 14.401 39.2329 14.395C46.3839 14.356 53.5349 14.386 60.6828 14.368C63.2125 14.362 62.8615 14.7551 62.9335 12.0784C62.9575 11.1901 62.6544 10.914 61.7722 10.923C57.9551 10.9621 54.135 10.9381 50.318 10.9381V10.9411Z" fill="white"/>
<path d="M25.261 18.1252C22.1672 18.1312 19.7905 15.7545 19.7935 12.6636C19.7935 9.56678 22.1672 7.19312 25.255 7.19312C28.3519 7.19312 30.7225 9.56077 30.7225 12.6546C30.7225 15.7485 28.3519 18.1222 25.258 18.1252H25.261ZM25.246 14.3231C26.0922 14.3291 26.9145 13.5189 26.9205 12.6696C26.9265 11.8234 26.1162 10.9982 25.27 10.9922C24.4238 10.9862 23.6015 11.7934 23.5955 12.6456C23.5865 13.4919 24.3998 14.3141 25.246 14.3231Z" fill="white"/>
<path d="M73.7395 14.533C72.9923 14.533 72.2451 14.533 71.4978 14.533C71.3118 14.533 71.1257 14.527 70.9367 14.527C69.7994 14.53 70.0304 13.6298 70.1445 13.0746C70.3035 12.3004 69.3643 10.959 70.9067 10.83C72.7972 10.671 74.7117 10.791 76.6173 10.791C76.7283 10.791 76.8723 10.767 76.9474 10.827C77.9977 11.6312 77.2504 12.7475 77.4275 13.7078C77.5445 14.341 77.1214 14.545 76.5393 14.533C75.606 14.518 74.6727 14.53 73.7395 14.53V14.533Z" fill="white"/>
<path d="M84.5635 14.5271C83.6302 14.5271 82.697 14.5121 81.7637 14.5331C81.1515 14.5451 80.8875 14.2871 80.8905 13.6689C80.9175 10.1129 80.5033 10.8601 83.5522 10.7881C84.8215 10.7581 86.0909 10.8001 87.3603 10.7821C87.9724 10.7761 88.2365 11.0282 88.2335 11.6463C88.2065 15.2023 88.6206 14.4431 85.5718 14.5331C85.2357 14.5421 84.8996 14.5331 84.5635 14.5331V14.5271Z" fill="white"/>
</svg>
