<svg width="108" height="108" viewBox="0 0 108 108" fill="none" xmlns="http://www.w3.org/2000/svg">
<path d="M34.2916 107.954C25.1211 107.954 15.9535 107.957 6.78296 107.954C2.66415 107.954 0.0332783 105.335 0.0272786 101.243C0.0212789 96.1162 0.060277 90.9894 0.000279889 85.8627C-0.0117195 84.7047 0.360263 84.3837 1.47321 84.4257C4.09508 84.5217 3.7621 84.1617 3.7711 86.6936C3.7891 91.3344 3.7711 95.9752 3.7771 100.616C3.7801 103.286 4.69506 104.207 7.34993 104.207C17.6424 104.21 27.9349 104.195 38.2245 104.228C39.2474 104.231 39.6044 103.955 39.5654 102.905C39.4904 100.811 39.4934 98.711 39.5654 96.6201C39.5984 95.6032 39.2294 95.3632 38.2695 95.3662C30.5988 95.3992 22.9252 95.3872 15.2546 95.3842C12.9387 95.3842 12.3117 94.6012 12.7677 92.3184C13.8056 87.1136 14.8436 81.9058 15.8845 76.7011C16.0105 76.0681 16.0465 75.4502 15.8665 74.8172C15.0476 71.9793 14.2226 69.1415 13.4426 66.2916C13.2386 65.5506 13.0107 65.2986 12.2247 65.6916C10.5208 66.5466 8.77786 67.3265 7.03194 68.0945C4.81805 69.0665 3.8131 70.7944 3.7891 73.1433C3.7651 75.3512 3.7531 77.5591 3.7951 79.7669C3.8131 80.6519 3.58511 81.0539 2.61016 81.0269C-0.4317 80.9459 0.0752763 81.3689 0.0362782 78.483C0.00927946 76.6501 0.0452777 74.8142 0.0272786 72.9813C-0.00871968 69.0845 1.7822 66.3396 5.27703 64.7077C10.4638 62.2868 15.6715 59.9079 20.8553 57.484C21.4583 57.202 22.5322 57.073 22.3552 56.2421C22.1902 55.4741 21.2003 55.9001 20.5883 55.8821C18.6804 55.8251 16.7725 55.8821 14.8616 55.8551C12.5487 55.8221 10.8268 54.1062 10.8178 51.7873C10.7968 46.7355 10.7968 41.6838 10.8208 36.629C10.8238 35.87 10.6678 35.2791 10.0888 34.7391C9.35083 34.0521 9.00885 33.1432 9.01485 32.1142C9.02385 30.5423 9.02685 28.9704 9.01485 27.3984C9.00585 26.3275 9.36583 25.3915 10.1338 24.6776C10.6858 24.1646 10.8418 23.6006 10.8208 22.8837C10.7848 21.5757 10.8358 20.2648 10.8058 18.9538C10.7878 18.2249 11.0878 17.9639 11.8017 17.9729C15.1256 18.0179 14.4896 17.6159 14.5586 20.5528C14.5706 21.0387 14.5256 21.5277 14.5706 22.0107C14.6216 22.5387 14.2646 23.2916 15.2606 23.3666C16.1035 23.4296 16.7905 23.3726 17.0425 22.3317C17.2885 21.3177 17.6694 20.3338 18.0264 19.3498C18.3534 18.4469 18.9984 17.9789 19.9913 17.9789C28.3009 17.9849 36.6075 17.9849 44.9171 17.9789C45.9101 17.9789 46.5431 18.4679 46.8671 19.3678C47.248 20.4238 47.638 21.4797 47.935 22.5597C48.211 23.5646 48.961 23.3606 49.6479 23.3576C50.4819 23.3546 50.3319 22.7127 50.3229 22.2177C50.2629 19.4518 50.4459 16.686 50.1609 13.9201C49.6419 8.85633 45.2381 4.35354 40.1294 3.96356C35.0536 3.57658 29.9569 3.55858 24.8841 3.96356C19.7303 4.37454 15.5965 8.35535 14.8046 13.4641C14.6456 14.4811 14.2826 14.88 13.2806 14.6341C13.1007 14.5891 12.9117 14.5711 12.7257 14.5561C11.3677 14.4421 10.8098 13.7281 11.0518 12.4142C12.3447 5.40649 18.7164 0.0487477 25.835 0.0157492C30.2508 -0.00524975 34.6666 -0.00524975 39.0824 0.0157492C47.209 0.0577472 54.0217 6.87042 54.0757 14.997C54.0937 17.6909 54.0907 20.3848 54.0727 23.0817C54.0697 23.6816 54.2107 24.1496 54.6667 24.5726C55.5366 25.3765 55.9086 26.4025 55.8816 27.5964C55.8516 29.0184 55.8516 30.4403 55.8816 31.8622C55.9086 33.0562 55.5426 34.0881 54.6637 34.8861C54.1597 35.3451 54.0697 35.864 54.0727 36.491C54.0847 41.4318 54.0847 46.3725 54.0787 51.3103C54.0757 54.2772 52.4828 55.8491 49.4859 55.8581C47.503 55.8611 45.5201 55.8461 43.5342 55.8701C43.1652 55.8731 42.6012 55.6421 42.4873 56.2061C42.3823 56.74 42.8952 56.947 43.3032 57.136C46.0181 58.399 48.733 59.6529 51.4508 60.9128C52.9118 61.5878 54.3637 62.2808 55.8366 62.9288C56.4786 63.2107 56.7306 63.5707 56.3226 64.2157C56.2836 64.2787 56.2596 64.3507 56.2296 64.4197C55.1317 66.8166 55.1137 66.8556 52.7138 65.7006C51.8618 65.2926 51.6368 65.5656 51.4268 66.3426C50.6589 69.1565 49.8459 71.9583 49.0359 74.7602C48.865 75.3542 48.85 75.9391 48.9669 76.5331C49.9089 81.2249 50.8719 85.9107 51.7808 90.6114C51.9278 91.3704 52.2818 91.7154 52.9958 91.8294C53.4757 91.9044 53.9527 92.0124 54.4177 92.1444C55.7196 92.5133 55.7196 92.5223 55.7196 91.1184C55.7196 86.0276 55.6596 80.9369 55.7376 75.8491C55.8516 68.3195 58.9955 62.2058 64.7132 57.394C66.0271 56.2901 67.4881 55.3571 68.883 54.3522C69.618 53.8212 70.4279 53.6952 71.1959 54.1962C75.0507 56.701 78.6175 59.5149 81.0444 63.5377C82.7273 66.3306 83.8763 69.3155 84.3413 72.5373C84.4763 73.4823 84.8812 73.6862 85.7302 73.6802C89.771 73.6502 93.8148 73.6592 97.8556 73.6712C101.671 73.6832 104.362 76.3591 104.377 80.1569C104.383 81.5339 104.539 82.9348 103.939 84.2487C103.753 84.6597 103.978 84.8547 104.323 85.0287C107.059 86.3966 108.049 88.6795 107.998 91.6524C107.917 96.2902 107.98 100.934 107.974 105.575C107.974 107.351 107.38 107.954 105.631 107.957C93.6558 107.963 81.6804 107.948 69.705 107.978C68.664 107.978 68.238 107.732 68.277 106.61C68.379 103.832 67.98 104.216 70.6679 104.213C81.3714 104.198 92.0749 104.192 102.778 104.231C103.879 104.234 104.353 103.991 104.248 102.809C104.149 101.696 104.206 100.565 104.233 99.443C104.248 98.822 104.104 98.4891 103.405 98.747C102.613 99.038 101.782 98.975 100.96 98.975C88.7961 98.975 76.6346 98.975 64.4702 98.975C63.1173 98.975 63.1353 98.969 63.6483 100.178C64.3412 101.807 64.8302 103.487 64.8572 105.278C64.8902 107.417 64.3712 107.957 62.2563 107.96C52.9388 107.96 43.6182 107.96 34.3006 107.96L34.2916 107.954ZM32.5037 21.7257C29.0989 21.7257 25.6941 21.7257 22.2892 21.7257C21.8482 21.7257 21.3233 21.6357 21.1403 22.1877C20.7053 23.4956 19.9913 24.7526 19.9703 26.1475C19.9133 30.3383 19.9253 34.5291 19.9613 38.7199C19.9793 40.9368 21.0113 42.5507 23.0392 43.5347C25.7961 44.8756 28.5439 46.2435 31.2678 47.6535C32.0808 48.0735 32.7557 48.1035 33.5777 47.6715C36.2266 46.2795 38.8934 44.9176 41.5933 43.6247C43.9242 42.5117 44.9741 40.7088 44.9471 38.1619C44.9141 34.9431 44.8781 31.7242 44.9621 28.5084C45.0131 26.5645 44.7192 24.7346 44.0532 22.9137C43.7352 22.0467 43.3572 21.6717 42.3823 21.6897C39.0914 21.7527 35.7976 21.7137 32.5037 21.7137V21.7257ZM70.1339 88.0346C73.3138 88.0346 76.4966 88.0046 79.6765 88.0526C80.6184 88.0676 80.8974 87.7466 80.8854 86.8256C80.8404 83.4208 80.9244 80.0129 80.8554 76.6111C80.7144 69.5464 77.9156 63.7837 72.1648 59.5869C69.753 57.826 70.5749 57.823 68.133 59.6199C63.0693 63.3427 60.1624 68.3345 59.6314 74.6492C59.2835 78.795 59.5714 82.9498 59.4575 87.1016C59.4335 87.9836 59.9104 88.0496 60.5914 88.0436C63.7712 88.0286 66.9541 88.0376 70.1339 88.0376V88.0346ZM32.4197 91.6284C37.2465 91.6284 42.0733 91.6074 46.9 91.6464C47.818 91.6524 48.067 91.4214 47.872 90.5004C47.026 86.4776 46.2191 82.4458 45.4391 78.408C45.2981 77.679 44.9981 77.4031 44.2572 77.4031C36.4006 77.4211 28.5409 77.4181 20.6843 77.4031C19.9793 77.4031 19.6043 77.5921 19.4574 78.357C18.6744 82.4308 17.8554 86.4986 17.0095 90.5604C16.8265 91.4334 17.0725 91.6494 17.9394 91.6434C22.7662 91.6074 27.593 91.6254 32.4197 91.6254V91.6284ZM32.3777 73.6622C36.3435 73.6622 40.3064 73.6532 44.2722 73.6712C44.9321 73.6712 45.4031 73.5872 45.6101 72.8253C46.3541 70.0834 47.128 67.3505 47.938 64.6297C48.157 63.8977 47.968 63.5167 47.296 63.2257C46.1651 62.7368 45.0371 62.2268 43.9392 61.6658C43.2552 61.3148 42.9582 61.3388 42.6942 62.1848C41.4643 66.1656 38.3235 68.4185 34.1297 68.4305C33.1187 68.4335 32.1048 68.3735 31.0998 68.4425C26.63 68.7455 23.0092 65.6706 22.1062 61.9928C21.9472 61.3478 21.6742 61.3208 21.1613 61.5698C20.1173 62.0738 19.0824 62.6048 18.0024 63.0187C16.9735 63.4147 16.6675 63.9427 17.0305 65.0556C17.8074 67.4345 18.5064 69.8434 19.1004 72.2763C19.3794 73.4222 19.9163 73.7132 21.0383 73.6922C24.8151 73.6202 28.5919 73.6652 32.3717 73.6652L32.3777 73.6622ZM32.2667 64.6807C32.9057 64.6807 33.3917 64.6897 33.8777 64.6807C37.8045 64.6027 39.9014 61.8458 38.9054 58.045C38.4134 56.1641 37.8915 54.2922 37.3695 52.4173C36.8025 50.3743 36.7725 50.3324 34.9306 51.3163C33.2267 52.2253 31.5858 52.2523 29.9149 51.2863C29.5909 51.1003 29.2339 50.9683 28.9159 50.7763C28.2859 50.3923 27.9889 50.6053 27.812 51.2773C27.173 53.6982 26.438 56.0981 25.859 58.534C25.1421 61.5458 26.813 63.9847 29.8429 64.5667C30.7008 64.7317 31.5588 64.6507 32.2637 64.6837L32.2667 64.6807ZM93.3768 95.2162C95.9597 95.2162 98.5426 95.2432 101.122 95.2072C103.162 95.1802 104.14 94.1783 104.212 92.1564C104.224 91.8204 104.227 91.4814 104.212 91.1454C104.113 89.2405 103.156 88.2235 101.242 88.2085C96.0047 88.1696 90.764 88.1995 85.5262 88.1845C84.8392 88.1845 84.6022 88.4545 84.6113 89.1205C84.6382 90.7284 84.6682 92.3424 84.5992 93.9473C84.5573 94.9162 84.8452 95.2672 85.8562 95.2402C88.3611 95.1742 90.8689 95.2192 93.3768 95.2162ZM52.0448 104.204C54.5857 104.204 57.1266 104.165 59.6674 104.222C60.6514 104.243 60.9064 103.997 60.6214 103.022C59.4755 99.098 55.8396 96.0262 51.8078 95.5522C49.2699 95.2522 46.7321 95.4682 44.1972 95.3752C43.3902 95.3452 43.2912 95.7832 43.2972 96.4312C43.3152 98.5971 43.3452 100.766 43.2852 102.932C43.2582 103.895 43.5252 104.252 44.5392 104.225C47.041 104.159 49.5459 104.204 52.0478 104.204H52.0448ZM91.4989 84.4407C93.4818 84.4407 95.4647 84.4617 97.4476 84.4347C99.6015 84.4047 100.576 83.4028 100.621 81.2369C100.627 80.9759 100.63 80.7119 100.621 80.4509C100.54 78.477 99.5835 77.4511 97.6156 77.4301C93.6108 77.3881 89.606 77.4271 85.6042 77.4031C84.8902 77.4001 84.5902 77.6281 84.6052 78.372C84.6412 80.0549 84.6472 81.7409 84.6052 83.4238C84.5842 84.2217 84.8962 84.4647 85.6612 84.4527C87.6051 84.4167 89.552 84.4407 91.4989 84.4407ZM50.3289 44.0627C50.3289 41.7468 50.3229 39.4309 50.3319 37.118C50.3319 36.548 50.3049 36.089 49.5249 36.086C48.772 36.083 48.691 36.488 48.682 37.085C48.664 38.2759 48.799 39.4759 48.559 40.6608C47.881 44.0147 45.6761 45.9916 42.6942 47.3655C40.1444 48.5414 40.1954 48.6044 41.0203 51.2173C41.2213 51.8563 41.5273 52.1233 42.2083 52.1143C44.4852 52.0843 46.7651 52.0753 49.0419 52.1143C50.0259 52.1323 50.3589 51.7333 50.3439 50.7793C50.3049 48.5384 50.3319 46.2975 50.3319 44.0567L50.3289 44.0627ZM14.5586 43.9367C14.5586 46.2196 14.5856 48.5024 14.5466 50.7823C14.5286 51.7363 14.8616 52.1443 15.8485 52.1173C17.5674 52.0693 19.2894 52.1053 21.0113 52.1053C23.7411 52.1053 23.7111 52.0993 24.3441 49.4684C24.5151 48.7574 24.2991 48.4394 23.7022 48.1635C22.7182 47.7045 21.7462 47.2215 20.7923 46.7055C18.3744 45.4006 16.8895 43.3757 16.3135 40.7028C16.0585 39.5269 16.2205 38.3149 16.2025 37.121C16.1935 36.551 16.1755 36.089 15.3925 36.086C14.6366 36.083 14.5496 36.491 14.5526 37.088C14.5676 39.3709 14.5586 41.6538 14.5586 43.9337V43.9367ZM70.2629 91.7874C67.0471 91.7874 63.8282 91.7844 60.6124 91.7934C60.2524 91.7934 59.7214 91.6494 59.5984 92.0514C59.3375 92.9123 59.3225 93.8513 59.5894 94.7002C59.8174 95.4202 60.5854 95.2162 61.1614 95.2192C66.9961 95.2282 72.8308 95.2342 78.6655 95.2192C81.1494 95.2132 80.7954 95.5672 80.8854 93.0083C80.9214 91.9734 80.5164 91.7574 79.5745 91.7724C76.4696 91.8204 73.3648 91.7904 70.2599 91.7904L70.2629 91.7874ZM16.1965 29.7713C16.1965 27.8794 15.3945 26.9955 13.7906 27.1195C13.7546 27.1195 13.7156 27.1225 13.6796 27.1225C13.0947 27.1315 12.7767 27.4254 12.7737 28.0164C12.7677 29.1684 12.7647 30.3233 12.7737 31.4753C12.7797 32.0752 13.1367 32.2912 13.7066 32.3482C16.1485 32.5852 16.1935 32.5552 16.1935 30.1073C16.1935 29.9963 16.1935 29.8853 16.1935 29.7713H16.1965ZM48.691 29.6603C48.691 32.6032 48.691 32.5882 51.1808 32.3482C51.8258 32.2852 52.1228 31.9972 52.1228 31.3613C52.1228 30.3203 52.1048 29.2764 52.1318 28.2354C52.1528 27.4254 51.7838 27.1015 50.9859 27.1075C48.238 27.1315 48.745 26.8825 48.694 29.3244C48.694 29.4353 48.694 29.5463 48.694 29.6603H48.691Z" fill="white"/>
<path d="M79.1605 54.0491C78.2605 54.0641 77.7116 53.5452 77.3096 52.8162C76.5356 51.4093 75.7557 50.0053 75.0027 48.5864C74.7117 48.0374 74.3127 47.6384 73.7638 47.3445C72.3778 46.6095 70.9949 45.8655 69.633 45.0916C67.785 44.0386 67.722 42.1607 69.675 41.3357C73.2688 39.8148 75.8367 37.4239 77.2316 33.7611C77.5526 32.9211 78.1826 32.3362 79.1935 32.3542C80.1535 32.3722 80.7504 32.9451 81.0594 33.7371C82.4753 37.3759 84.9832 39.8778 88.6191 41.2937C89.417 41.6057 89.984 42.2027 90.002 43.1596C90.02 44.1706 89.432 44.7946 88.5951 45.1216C84.9622 46.5465 82.4483 49.0394 81.0474 52.6902C80.7414 53.4882 80.1235 54.0521 79.1665 54.0461L79.1605 54.0491ZM83.8343 43.3066C83.8403 43.0097 83.6543 42.9137 83.4923 42.8507C81.5634 42.1187 80.2554 40.7838 79.4965 38.8669C79.2595 38.2669 78.9355 38.5009 78.7615 38.9358C78.0296 40.7658 76.7906 42.0707 74.9367 42.7877C74.2527 43.0517 74.3637 43.3966 74.9637 43.6306C76.7726 44.3386 78.0146 45.5895 78.7225 47.3955C78.9625 48.0074 79.3075 48.0854 79.5655 47.4134C80.2794 45.5565 81.5874 44.3176 83.4203 43.5916C83.5823 43.5256 83.7173 43.3876 83.8343 43.3036V43.3066Z" fill="white"/>
<path d="M104.59 29.7263C104.581 30.3263 104.332 30.8123 103.876 31.1903C103.675 31.3553 103.462 31.5323 103.222 31.6193C100.726 32.5462 99.1846 34.3521 98.0836 36.74C97.2287 38.5969 95.4347 38.5309 94.3848 36.752C94.3278 36.656 94.2588 36.563 94.2198 36.458C93.3468 34.1661 91.7449 32.6212 89.477 31.7032C88.5771 31.3403 87.8271 30.7373 87.8811 29.6243C87.9291 28.5894 88.6551 28.0614 89.504 27.6594C89.606 27.6114 89.699 27.5454 89.801 27.5035C91.7959 26.6965 93.2568 25.3586 94.0218 23.3037C94.1628 22.9227 94.3998 22.5687 94.6368 22.2357C95.4917 21.0448 97.0037 21.0178 97.8316 22.2237C98.3806 23.0217 98.8456 23.8856 99.2626 24.7616C99.6855 25.6525 100.31 26.2675 101.197 26.6845C102.007 27.0655 102.781 27.5274 103.555 27.9834C104.206 28.3674 104.614 28.9224 104.587 29.7233L104.59 29.7263ZM93.9408 29.6783C94.4388 30.0323 94.9068 30.2813 95.2608 30.6383C95.6417 31.0193 95.9177 31.5053 96.2957 32.0242C96.7967 31.1033 97.7296 30.5693 98.1166 29.8823C98.5906 29.0424 96.7967 28.9614 96.6707 27.9984C96.6617 27.9294 96.6047 27.8664 96.5627 27.8034C96.3917 27.5244 96.1547 27.4015 95.9897 27.7614C95.5817 28.6524 94.7868 29.1354 93.9378 29.6783H93.9408Z" fill="white"/>
<path d="M32.4197 42.3677C29.9779 42.3797 27.905 41.1288 27.2 39.2359C26.762 38.0599 26.96 37.7449 28.1929 37.7419C29.3299 37.7389 30.4608 37.5919 31.5078 38.3509C32.1318 38.8039 33.0107 38.7109 33.6317 38.2459C34.7926 37.379 36.0736 37.8139 37.3035 37.7779C38.0685 37.7569 37.9035 38.3809 37.7955 38.8489C37.3785 40.6638 35.3596 42.2057 33.2057 42.3647C32.9447 42.3827 32.6837 42.3647 32.4227 42.3647L32.4197 42.3677Z" fill="white"/>
<path d="M25.1931 30.7072C23.9851 30.7072 23.3822 30.0602 23.3842 28.7663C23.3842 26.9544 23.3842 26.9514 25.3251 26.9574C27.347 26.9664 27.122 26.8134 27.131 29.0093C27.14 30.7072 27.131 30.7072 25.1931 30.7072Z" fill="white"/>
<path d="M41.5033 28.8474C41.5033 30.0874 40.8723 30.7073 39.6104 30.7073C38.3484 30.7073 37.7285 30.0394 37.7505 28.7034C37.7505 27.5375 38.3814 26.9555 39.6434 26.9575C40.8833 26.9575 41.5033 27.5885 41.5033 28.8504V28.8474Z" fill="white"/>
<path d="M66.6511 78.2309C66.6511 80.0248 66.6331 81.8187 66.6601 83.6126C66.6721 84.3266 66.4051 84.6176 65.6792 84.6056C62.3163 84.5576 62.9523 84.9836 62.9133 81.9387C62.8743 78.9868 62.9343 76.035 62.8893 73.0831C62.8773 72.1652 63.1713 71.8322 64.1042 71.8562C67.0891 71.9312 66.6091 71.5322 66.6511 74.3101C66.6721 75.618 66.6541 76.9259 66.6541 78.2339H66.6511V78.2309Z" fill="white"/>
<path d="M77.4326 78.27C77.4326 80.0249 77.4086 81.7829 77.4416 83.5378C77.4536 84.2847 77.2196 84.6207 76.4187 84.6087C73.1248 84.5517 73.7278 84.9687 73.6888 82.0108C73.6528 79.023 73.7008 76.0321 73.6678 73.0443C73.6588 72.2013 73.8958 71.8323 74.8047 71.8563C77.9276 71.9343 77.3726 71.4993 77.4266 74.4602C77.4506 75.7291 77.4296 77.0011 77.4266 78.273L77.4326 78.27Z" fill="white"/>
<path d="M70.2569 68.4335C68.947 68.4335 68.292 67.8005 68.292 66.5346C68.292 65.2986 68.925 64.6807 70.1909 64.6807C71.4569 64.6807 72.0748 65.3136 72.0448 66.5796C72.0448 67.8135 71.4499 68.4315 70.2599 68.4335H70.2569Z" fill="white"/>
<path d="M25.3371 82.8058C25.3371 84.0017 24.6851 84.5997 23.3812 84.5997C22.1852 84.5997 21.5872 83.9477 21.5872 82.6438C21.5872 81.4458 22.2772 80.8479 23.6572 80.8499C24.7791 80.8499 25.3401 81.5018 25.3401 82.8058H25.3371Z" fill="white"/>
<path d="M43.3002 82.7698C43.3002 84.5997 43.3002 84.6057 41.3803 84.5967C39.3374 84.5877 39.5654 84.7407 39.5534 82.5658C39.5444 80.8468 39.5534 80.8468 41.5843 80.8498C42.7302 80.8498 43.3032 81.4898 43.3032 82.7698H43.3002Z" fill="white"/>
</svg>
